<?xml version="1.0" encoding="UTF-8" standalone="no"?>
<!-- Created with Inkscape (http://www.inkscape.org/) -->

<svg
   xmlns:dc="http://purl.org/dc/elements/1.1/"
   xmlns:cc="http://creativecommons.org/ns#"
   xmlns:rdf="http://www.w3.org/1999/02/22-rdf-syntax-ns#"
   xmlns:svg="http://www.w3.org/2000/svg"
   xmlns="http://www.w3.org/2000/svg"
   xmlns:xlink="http://www.w3.org/1999/xlink"
   xmlns:sodipodi="http://sodipodi.sourceforge.net/DTD/sodipodi-0.dtd"
   xmlns:inkscape="http://www.inkscape.org/namespaces/inkscape"
   width="210mm"
   height="297mm"
   viewBox="0 0 210 297"
   version="1.1"
   id="svg8"
   inkscape:version="0.92.4 (5da689c313, 2019-01-14)"
   sodipodi:docname="drawing.svg">
  <defs
     id="defs2">
    <inkscape:path-effect
       effect="spiro"
       id="path-effect1271"
       is_visible="true" />
    <inkscape:path-effect
       is_visible="true"
       id="path-effect1267"
       effect="spiro" />
    <inkscape:path-effect
       is_visible="true"
       id="path-effect1263"
       effect="spiro" />
    <inkscape:path-effect
       is_visible="true"
       id="path-effect1259"
       effect="spiro" />
    <inkscape:path-effect
       is_visible="true"
       id="path-effect1255"
       effect="spiro" />
    <inkscape:path-effect
       is_visible="true"
       id="path-effect1251"
       effect="spiro" />
    <inkscape:path-effect
       is_visible="true"
       id="path-effect1247"
       effect="spiro" />
    <inkscape:path-effect
       is_visible="true"
       id="path-effect1243"
       effect="spiro" />
    <inkscape:path-effect
       is_visible="true"
       id="path-effect1239"
       effect="spiro" />
    <inkscape:path-effect
       is_visible="true"
       id="path-effect1235"
       effect="spiro" />
    <linearGradient
       inkscape:collect="always"
       id="linearGradient1189">
      <stop
         style="stop-color:#ee7ac3;stop-opacity:1;"
         offset="0"
         id="stop1185" />
      <stop
         style="stop-color:#ee7ac3;stop-opacity:0;"
         offset="1"
         id="stop1187" />
    </linearGradient>
    <inkscape:path-effect
       is_visible="true"
       id="path-effect1066"
       effect="spiro" />
    <inkscape:path-effect
       effect="spiro"
       id="path-effect863"
       is_visible="true" />
    <inkscape:path-effect
       effect="spiro"
       id="path-effect855"
       is_visible="true" />
    <inkscape:path-effect
       effect="spiro"
       id="path-effect851"
       is_visible="true" />
    <inkscape:path-effect
       effect="spiro"
       id="path-effect847"
       is_visible="true" />
    <inkscape:path-effect
       effect="spiro"
       id="path-effect843"
       is_visible="true" />
    <inkscape:path-effect
       effect="spiro"
       id="path-effect839"
       is_visible="true" />
    <inkscape:path-effect
       effect="spiro"
       id="path-effect827"
       is_visible="true" />
    <inkscape:path-effect
       effect="spiro"
       id="path-effect823"
       is_visible="true" />
    <inkscape:path-effect
       effect="spiro"
       id="path-effect819"
       is_visible="true" />
    <inkscape:path-effect
       effect="spiro"
       id="path-effect819-9"
       is_visible="true" />
    <inkscape:path-effect
       effect="spiro"
       id="path-effect823-2"
       is_visible="true" />
    <inkscape:path-effect
       effect="spiro"
       id="path-effect827-6"
       is_visible="true" />
    <inkscape:path-effect
       effect="spiro"
       id="path-effect839-4"
       is_visible="true" />
    <inkscape:path-effect
       effect="spiro"
       id="path-effect843-9"
       is_visible="true" />
    <inkscape:path-effect
       effect="spiro"
       id="path-effect847-3"
       is_visible="true" />
    <inkscape:path-effect
       effect="spiro"
       id="path-effect851-7"
       is_visible="true" />
    <inkscape:path-effect
       effect="spiro"
       id="path-effect855-9"
       is_visible="true" />
    <inkscape:path-effect
       effect="spiro"
       id="path-effect863-6"
       is_visible="true" />
    <linearGradient
       inkscape:collect="always"
       xlink:href="#linearGradient1189"
       id="linearGradient1191"
       x1="0.87680839"
       y1="30.567033"
       x2="208.32527"
       y2="30.567033"
       gradientUnits="userSpaceOnUse" />
    <linearGradient
       inkscape:collect="always"
       xlink:href="#linearGradient1189"
       id="linearGradient1193"
       x1="1.1116266"
       y1="10.336072"
       x2="24.497166"
       y2="10.336072"
       gradientUnits="userSpaceOnUse" />
    <linearGradient
       inkscape:collect="always"
       xlink:href="#linearGradient1189"
       id="linearGradient1199"
       x1="25.949227"
       y1="7.2696213"
       x2="63.052227"
       y2="7.2696213"
       gradientUnits="userSpaceOnUse" />
    <linearGradient
       inkscape:collect="always"
       xlink:href="#linearGradient1189"
       id="linearGradient1201"
       x1="59.347973"
       y1="12.855054"
       x2="106.89294"
       y2="12.855054"
       gradientUnits="userSpaceOnUse" />
    <linearGradient
       inkscape:collect="always"
       xlink:href="#linearGradient1189"
       id="linearGradient1203"
       x1="110.08944"
       y1="8.0457295"
       x2="139.47858"
       y2="8.0457295"
       gradientUnits="userSpaceOnUse" />
    <linearGradient
       inkscape:collect="always"
       xlink:href="#linearGradient1189"
       id="linearGradient1205"
       x1="139.71718"
       y1="5.9129027"
       x2="194.78786"
       y2="5.9129027"
       gradientUnits="userSpaceOnUse" />
    <linearGradient
       inkscape:collect="always"
       xlink:href="#linearGradient1189"
       id="linearGradient1207"
       x1="197.93813"
       y1="18.502987"
       x2="208.33479"
       y2="18.502987"
       gradientUnits="userSpaceOnUse" />
    <linearGradient
       inkscape:collect="always"
       xlink:href="#linearGradient1189"
       id="linearGradient1211"
       x1="59.347973"
       y1="12.855054"
       x2="106.89294"
       y2="12.855054"
       gradientUnits="userSpaceOnUse" />
  </defs>
  <sodipodi:namedview
     id="base"
     pagecolor="#ffffff"
     bordercolor="#666666"
     borderopacity="1.0"
     inkscape:pageopacity="0.0"
     inkscape:pageshadow="2"
     inkscape:zoom="0.49497475"
     inkscape:cx="-9.7153961"
     inkscape:cy="301.26658"
     inkscape:document-units="mm"
     inkscape:current-layer="g1030"
     showgrid="false"
     showguides="true"
     inkscape:guide-bbox="true"
     inkscape:window-width="1366"
     inkscape:window-height="705"
     inkscape:window-x="-8"
     inkscape:window-y="-8"
     inkscape:window-maximized="1">
    <sodipodi:guide
       position="-5.2916665,237.36905"
       orientation="0,1"
       id="guide815"
       inkscape:locked="false" />
  </sodipodi:namedview>
  <metadata
     id="metadata5">
    <rdf:RDF>
      <cc:Work
         rdf:about="">
        <dc:format>image/svg+xml</dc:format>
        <dc:type
           rdf:resource="http://purl.org/dc/dcmitype/StillImage" />
        <dc:title></dc:title>
      </cc:Work>
    </rdf:RDF>
  </metadata>
  <g
     inkscape:label="Layer 1"
     inkscape:groupmode="layer"
     id="layer1">
    <g
       id="g1030"
       style="stroke:#ee7ac3;fill:none;stroke-opacity:1;stroke-width:1;stroke-miterlimit:4;stroke-dasharray:none">
      <g
         style="stroke-width:1;stroke-miterlimit:4;stroke-dasharray:none;stroke:url(#linearGradient1191);fill:none;stroke-opacity:1"
         id="g891">
        <path
           style="fill:none;stroke:url(#linearGradient1191);stroke-width:1;stroke-linecap:butt;stroke-linejoin:round;stroke-opacity:1;stroke-miterlimit:4;stroke-dasharray:none"
           d="M 8.315476,1.989583 C 6.6344196,1.7687763 4.8678574,2.3128761 3.6023399,3.4412252 2.3368224,4.5695743 1.5944986,6.2624245 1.6218418,7.9576999 c 0.027343,1.6952754 0.8238746,3.3633051 2.1251228,4.4502551 1.3012481,1.08695 3.0844384,1.573795 4.7574995,1.29889 1.8553559,-0.304859 3.4409599,-1.45941 4.9706179,-2.552767 0.76483,-0.546679 1.537611,-1.08808 2.372156,-1.5209256 0.834545,-0.4328454 1.737202,-0.7563934 2.673595,-0.8399979 0.314161,-0.028049 0.630865,-0.028986 0.944941,0 0.859012,0.079278 1.69594,0.3865666 2.402162,0.8819827 0.706221,0.4954158 1.28004,1.1777708 1.646981,1.9585008 0.366941,0.780731 0.526123,1.657963 0.456887,2.517843 -0.06924,0.859879 -0.366727,1.70034 -0.853858,2.412302 -0.487132,0.711961 -1.162736,1.293713 -1.939126,1.66975 -0.77639,0.376037 -1.651703,0.545457 -2.512333,0.486271 -0.860629,-0.05919 -1.704509,-0.346836 -2.422113,-0.825616 -0.717604,-0.478781 -1.307209,-1.147542 -1.692291,-1.919486"
           id="path817"
           inkscape:connector-curvature="0"
           inkscape:path-effect="#path-effect819"
           inkscape:original-d="m 8.315476,1.989583 c 0.063261,3.9054894 0.1262568,7.8112431 0.1889881,11.717262 0.062731,3.906018 6.6778439,-3.276058 10.0163689,-4.9136905 3.338525,-1.6376325 0.630225,-2.646e-4 0.944941,0 0.314715,2.645e-4 -3.27553,4.7874335 -4.913691,7.1815475" />
        <path
           style="fill:none;stroke:url(#linearGradient1191);stroke-width:1;stroke-linecap:butt;stroke-linejoin:round;stroke-opacity:1;stroke-miterlimit:4;stroke-dasharray:none"
           d="m 13.985119,22.967261 c -0.10313,-1.346522 -0.665271,-2.65371 -1.5717,-3.654782 -0.906429,-1.001072 -2.151549,-1.689851 -3.4812496,-1.925765 -1.3297003,-0.235915 -2.7357731,-0.01751 -3.9312577,0.610643 -1.1954845,0.628152 -2.1730022,1.662174 -2.7330546,2.891035 -0.484144,1.062304 -0.6556924,2.238673 -0.7559524,3.401786 -0.2652549,3.077213 -0.06833,6.172549 10e-8,9.260417 0.036238,1.637629 0.036238,3.276061 0,4.91369"
           id="path821"
           inkscape:connector-curvature="0"
           inkscape:path-effect="#path-effect823"
           inkscape:original-d="M 13.985119,22.967261 C 10.07963,22.274041 6.1738755,21.581084 2.2678571,20.888392 c -3.9060185,-0.692691 -0.5037036,2.267593 -0.7559524,3.401786 -0.2522487,1.134193 2.646e-4,6.173347 10e-8,9.260417 -2.646e-4,3.08707 2.645e-4,3.275529 0,4.91369" />
        <path
           style="fill:none;stroke:url(#linearGradient1191);stroke-width:1;stroke-linecap:butt;stroke-linejoin:round;stroke-opacity:1;stroke-miterlimit:4;stroke-dasharray:none"
           d="m 7.3705357,24.857142 c -0.7652848,0.231193 -1.442106,0.743806 -1.872002,1.417824 -0.4298959,0.674018 -0.6093184,1.503878 -0.49626,2.295287 0.1130584,0.79141 0.5176646,1.537837 1.1190897,2.064523 0.6014251,0.526687 1.3947052,0.829286 2.1941126,0.836951 0.849853,0.0081 1.674675,-0.305038 2.412935,-0.726095 0.73826,-0.421057 1.40814,-0.950342 2.112842,-1.425433 0.704702,-0.475092 1.460361,-0.902504 2.290687,-1.083816 0.415164,-0.09066 0.846164,-0.117961 1.266712,-0.05698 0.420547,0.06098 0.830465,0.211886 1.177241,0.457499 0.557017,0.394522 0.929617,1.026499 1.04894,1.698568 0.119324,0.67207 -0.0064,1.378018 -0.310501,1.989135 -0.304057,0.611117 -0.780473,1.128959 -1.338714,1.521746 -0.558242,0.392788 -1.196689,0.663609 -1.856571,0.838169 -1.475176,0.390231 -3.027888,0.303631 -4.553048,0.255579 -1.5251608,-0.04805 -3.0941799,-0.04742 -4.51838,0.500376 -0.7163801,0.275543 -1.3840986,0.689421 -1.9190044,1.239876 -0.5349058,0.550454 -0.9335337,1.240026 -1.1017943,1.9889 -0.1682606,0.748874 -0.099306,1.555859 0.2321762,2.248133 0.3314823,0.692274 0.9308627,1.260322 1.654694,1.51565 0.6184995,0.218173 1.296455,0.20651 1.9444987,0.105612 0.6480437,-0.100898 1.2795779,-0.287455 1.9232473,-0.413276 0.6436694,-0.12582 1.3130215,-0.189929 1.9525795,-0.04465 0.319779,0.07264 0.629207,0.198008 0.899449,0.383763 0.270241,0.185754 0.500488,0.433031 0.650761,0.724499 0.244974,0.47515 0.264481,1.046209 0.125218,1.562335 -0.139262,0.516125 -0.426965,0.982113 -0.7676,1.394118 -0.68127,0.824008 -1.581114,1.45806 -2.1924393,2.335214 -0.67565,0.969449 -0.9473705,2.164483 -1.0672374,3.340054 -0.1198669,1.17557 -0.1026864,2.363991 -0.2706251,3.533663 -0.1679387,1.169671 -0.5424553,2.350108 -1.3319146,3.229363 -0.3947297,0.439627 -0.8899117,0.794751 -1.447095,0.991297 C 4.7753492,59.771577 4.1555793,59.804382 3.5907739,59.63095 3.0201988,59.455747 2.5169693,59.06976 2.1998649,58.564095 1.8827604,58.05843 1.7544437,57.437334 1.8452018,56.847406 1.93596,56.257478 2.2450309,55.703672 2.6994633,55.316705 3.1538957,54.929738 3.7498736,54.71286 4.346726,54.717261"
           id="path825"
           inkscape:connector-curvature="0"
           inkscape:path-effect="#path-effect827"
           inkscape:original-d="m 7.3705357,24.857142 c 0.3152446,2.204597 0.6302248,4.409457 0.9449403,6.614585 0.3147158,2.205125 6.173876,-1.890147 9.260417,-2.834823 3.086541,-0.944676 -1.637633,4.03148 -2.456846,6.047618 -0.819213,2.016139 -6.047354,0.503704 -9.071428,0.755955 -3.0240742,0.252248 -0.7556878,4.661439 -1.1339285,6.992559 -0.3782409,2.331116 4.9139549,0.503703 7.3705355,0.755951 C 14.740807,43.441236 10.39461,46.7165 9.4494047,48.480654 8.5041996,50.244808 5.5439153,55.913919 3.5907739,59.63095 1.6376322,63.34798 4.0950065,56.354892 4.346726,54.717261" />
        <path
           style="fill:none;stroke:url(#linearGradient1191);stroke-width:1;stroke-linecap:butt;stroke-linejoin:round;stroke-opacity:1;stroke-miterlimit:4;stroke-dasharray:none"
           d="m 26.458333,7.6592257 c 0.05522,1.4483002 0.690666,2.8663713 1.734852,3.8715073 1.044187,1.005135 2.485438,1.586097 3.934791,1.586097 1.449352,0 2.890603,-0.580962 3.93479,-1.586097 1.044186,-1.005136 1.679635,-2.4232071 1.734852,-3.8715073 0.01334,-0.3498634 -0.0057,-0.7002999 0.0053,-1.0502445 0.011,-0.3499446 0.05331,-0.7036968 0.18371,-1.0286246 0.142317,-0.3546217 0.387011,-0.664191 0.684533,-0.9039642 0.297522,-0.2397733 0.6467,-0.4113371 1.011769,-0.5241886 0.730137,-0.2257028 1.51053,-0.2181361 2.273366,-0.1720544 0.762836,0.046082 1.529338,0.1285462 2.289052,0.045616 0.759713,-0.08293 1.528163,-0.3503196 2.056756,-0.9022544 0.303769,-0.3171831 0.513844,-0.7115528 0.791298,-1.0519936 0.138727,-0.1702204 0.295711,-0.3279425 0.480351,-0.446804 0.184641,-0.1188615 0.398686,-0.197644 0.618232,-0.2020952 0.207154,-0.0042 0.413779,0.058502 0.589098,0.1689265 0.17532,0.1104246 0.319616,0.2674062 0.423663,0.4465844 0.208093,0.3583566 0.251699,0.7943502 0.193889,1.2046916 -0.11562,0.8206828 -0.603348,1.5399665 -0.828674,2.3375354 -0.270045,0.955855 -0.141004,2.0159485 0.341274,2.884275 0.482278,0.8683266 1.310069,1.5362214 2.257599,1.8341634 0.94753,0.297942 2.004505,0.225216 2.9068,-0.190052 0.902294,-0.4152673 1.642812,-1.1673122 2.053851,-2.071541 0.362873,-0.7982701 0.469525,-1.6842982 0.64575,-2.5432842 0.176225,-0.8589859 0.446266,-1.7393904 1.055143,-2.3704063 0.496092,-0.5141296 1.19987,-0.8218445 1.914159,-0.8369322 0.714289,-0.015088 1.430434,0.2626345 1.947793,0.7553573 0.517359,0.4927228 0.829664,1.1944768 0.849417,1.9086518 0.01975,0.714175 -0.253286,1.4321187 -0.742619,1.9526849"
           id="path837"
           inkscape:connector-curvature="0"
           inkscape:path-effect="#path-effect839"
           inkscape:original-d="m 26.458333,7.6592257 c 3.780025,-2.646e-4 7.559789,-2.646e-4 11.339285,0 3.779499,2.646e-4 0.126256,-1.3861772 0.188989,-2.0788691 0.06273,-0.6926915 5.543915,-1.6381613 8.315476,-2.4568451 2.77156,-0.8186838 1.260184,-1.1341931 1.889881,-1.7008928 0.629696,-0.56669967 0.252249,2.7715607 0.377976,4.1577379 0.125728,1.3861775 5.039948,1.6376325 7.559524,2.4568454 2.519577,0.819213 1.134192,-3.2760583 1.700893,-4.9136905 0.5667,-1.6376322 2.646098,2.5195768 3.96875,3.7797618" />
        <path
           style="fill:none;stroke:url(#linearGradient1191);stroke-width:1;stroke-linecap:butt;stroke-linejoin:round;stroke-opacity:1;stroke-miterlimit:4;stroke-dasharray:none"
           d="m 70.303572,4.8244045 c 1.533911,0.6260744 2.73828,2.0066721 3.150382,3.6113603 0.412101,1.6046882 0.022,3.3947642 -1.020433,4.6824722 -1.042431,1.287708 -2.712045,2.041989 -4.36737,1.973046 -1.655324,-0.06894 -3.256434,-0.959448 -4.188176,-2.329379 -0.285831,-0.420255 -0.511638,-0.881357 -0.826949,-1.27997 -0.157655,-0.199307 -0.338053,-0.382643 -0.548193,-0.52554 -0.21014,-0.142898 -0.451249,-0.24448 -0.703726,-0.273359 -0.356379,-0.04076 -0.722464,0.06733 -1.017511,0.271327 -0.295048,0.203997 -0.521017,0.499303 -0.669352,0.825898 -0.29667,0.65319 -0.285246,1.402896 -0.203019,2.115573 0.409289,3.547398 2.54954,6.876515 5.6606,8.629471 1.55553,0.876478 3.329597,1.365201 5.114824,1.394411 1.785226,0.02921 3.577849,-0.402649 5.147049,-1.254412 1.5692,-0.851762 2.910417,-2.122764 3.832881,-3.651471 0.922465,-1.528707 1.422189,-3.311787 1.414106,-5.097235 C 81.070603,12.13115 80.552942,10.348905 79.591113,8.8446532 78.629285,7.3404014 77.225062,6.1204499 75.595238,5.3913687 74.988087,5.1197674 74.340136,4.9085257 73.82137,4.492255 73.561987,4.2841196 73.338731,4.0242823 73.206063,3.7193245 73.073396,3.4143666 73.036455,3.0620931 73.138392,2.7455354 c 0.10189,-0.3164117 0.338429,-0.5817414 0.628315,-0.7444187 0.289887,-0.1626773 0.629598,-0.226519 0.961567,-0.2093539 0.663938,0.03433 1.27207,0.3767475 1.811902,0.7647845 1.562103,1.1228557 2.761084,2.6738116 4.213492,3.9353515 0.726204,0.6307699 1.523451,1.1928744 2.412408,1.5602953 0.888957,0.3674208 1.876718,0.5327956 2.823506,0.362984 1.042062,-0.1868996 1.976856,-0.7646792 2.785314,-1.4482144 0.808459,-0.6835352 1.514431,-1.4788943 2.288537,-2.2011033 0.774106,-0.722209 1.637482,-1.3824786 2.641067,-1.7195885 0.501793,-0.168555 1.034716,-0.2530735 1.562853,-0.217321 0.528136,0.035752 1.051233,0.1942829 1.494552,0.4835488 0.407658,0.2659975 0.740113,0.6359754 1.007895,1.0424638 0.267782,0.4064884 0.473843,0.8502296 0.663545,1.2985076 0.379404,0.8965561 0.710556,1.8407106 1.352369,2.5727188 0.633016,0.7219765 1.551296,1.186759 2.507926,1.269374 0.95662,0.082615 1.94099,-0.2178538 2.68841,-0.8206144 0.74743,-0.6027607 1.24962,-1.5011281 1.37154,-2.4535437 0.12192,-0.9524156 -0.13777,-1.9483161 -0.70925,-2.7199179"
           id="path841"
           inkscape:connector-curvature="0"
           inkscape:path-effect="#path-effect843"
           inkscape:original-d="m 70.303572,4.8244045 c -2.141601,2.6455687 -4.283467,5.2914025 -6.425597,7.9374995 -2.14213,2.646098 -1.385647,-1.386177 -2.078868,-2.078869 -0.693222,-0.6926915 -1.259658,2.141601 -1.889882,3.212798 C 59.279001,14.96703 70.366831,8.2259254 75.595238,5.3913687 80.823643,2.5568119 73.957605,3.6272152 73.138392,2.7455354 72.319178,1.8638555 75.406514,2.6192787 76.540176,2.5565473 c 1.133666,-0.062731 6.29987,3.9054894 9.449406,5.8586308 3.149537,1.9531419 7.181813,-3.4020503 10.772323,-5.1026784 3.590505,-1.7006283 2.016135,3.2755289 3.023809,4.9136902 1.007666,1.6381616 3.906016,-3.1500658 5.858626,-4.724702" />
        <path
           style="fill:none;stroke:url(#linearGradient1191);stroke-width:1;stroke-linecap:butt;stroke-linejoin:round;stroke-opacity:1;stroke-miterlimit:4;stroke-dasharray:none"
           d="m 111.50297,3.6904758 c -1.00794,1.6340522 -1.18437,3.7529516 -0.46056,5.5312007 0.7238,1.7782495 2.32985,3.1716165 4.19244,3.6372645 1.86259,0.465647 3.9354,-0.008 5.41087,-1.236436 1.47548,-1.228428 2.31693,-3.1810725 2.19654,-5.0972078 -0.0397,-0.63258 -0.17591,-1.2809522 0,-1.8898809 0.11256,-0.3896294 0.3512,-0.7389785 0.66144,-1.0001918 0.31024,-0.2612132 0.68998,-0.4354719 1.08682,-0.5191194 0.79369,-0.167295 1.63215,0.02801 2.35034,0.4049904 1.4364,0.7539617 2.40231,2.1562872 3.64991,3.1931899 1.18435,0.9843337 2.64033,1.6384178 4.1628,1.8700985 1.52247,0.2316807 3.10711,0.040299 4.53065,-0.5471819"
           id="path845"
           inkscape:connector-curvature="0"
           inkscape:path-effect="#path-effect847"
           inkscape:original-d="m 111.50297,3.6904758 c 3.78003,0.9446759 7.55979,1.8896163 11.33929,2.8348214 3.7795,0.9452052 2.6e-4,-1.2601852 0,-1.8898809 -2.7e-4,-0.6296959 5.16594,1.3856481 7.74851,2.0788691 2.58257,0.6932208 5.7959,0.8816798 8.69345,1.3229166" />
        <path
           style="fill:none;stroke:url(#linearGradient1191);stroke-width:1;stroke-linecap:butt;stroke-linejoin:round;stroke-opacity:1;stroke-miterlimit:4;stroke-dasharray:none"
           d="m 145.52083,10.305059 c 0.89485,0.270711 1.90981,0.110282 2.67754,-0.4232263 0.76773,-0.5335084 1.27201,-1.4288177 1.33033,-2.3619007 0.0583,-0.9330829 -0.33055,-1.8842149 -1.02588,-2.5091655 -0.69533,-0.6249506 -1.68241,-0.9105089 -2.60401,-0.7533265 -0.54491,0.092937 -1.05406,0.3286219 -1.54846,0.5758829 -0.49439,0.2472609 -0.98582,0.5102271 -1.51666,0.6644056 -0.53084,0.1541786 -1.11389,0.1925406 -1.62839,-0.00958 -0.25725,-0.101061 -0.49283,-0.2619419 -0.66865,-0.4751928 -0.17583,-0.2132509 -0.28993,-0.4796833 -0.30749,-0.7555143 -0.0191,-0.3000086 0.0764,-0.6019228 0.24383,-0.8516114 0.16741,-0.2496886 0.40378,-0.4488628 0.66634,-0.5952467 0.52514,-0.2927678 1.13829,-0.3750488 1.73567,-0.4430227 3.8894,-0.4425644 7.81091,-0.503618 11.71726,-0.7559524 1.00266,-0.064767 2.04968,-0.1351068 2.97324,0.2605622 0.46178,0.1978345 0.88059,0.5155175 1.14769,0.9410026 0.2671,0.4254852 0.37047,0.963177 0.2258,1.4442684 -0.12642,0.4204083 -0.42896,0.7706676 -0.78275,1.030594 -0.35378,0.2599264 -0.75923,0.4391172 -1.16276,0.6120047 -0.40352,0.1728876 -0.81178,0.3431526 -1.17605,0.5881684 -0.36427,0.2450157 -0.68633,0.5735586 -0.84719,0.9820307 -0.13073,0.3319737 -0.14808,0.7053355 -0.0617,1.0515058 0.0864,0.3461702 0.27447,0.66448 0.52655,0.9169807 0.25207,0.2525007 0.56678,0.4397835 0.90477,0.5540587 0.33799,0.114275 0.6988,0.156425 1.05506,0.137022 0.71252,-0.03881 1.39545,-0.3209484 1.99388,-0.7096201 0.59844,-0.3886717 1.12103,-0.8818756 1.62905,-1.3829829 2.2728,-2.24188 4.43195,-4.7747007 7.3832,-5.9919739 1.47563,-0.6086366 3.13434,-0.8513896 4.68583,-0.4761447 0.77574,0.1876224 1.51701,0.5286096 2.14738,1.0181112 0.63037,0.4895016 1.14774,1.1289022 1.4696,1.8592336 0.37148,0.8429134 0.47522,1.774526 0.67373,2.6740209 0.0993,0.4497475 0.22381,0.8962428 0.41584,1.314871 0.19203,0.4186281 0.45405,0.8100968 0.80031,1.1137865 0.39001,0.3420557 0.87939,0.5639294 1.38938,0.6588934 0.50999,0.09496 1.03973,0.06549 1.54341,-0.05867 1.00735,-0.2483076 1.89055,-0.8628348 2.64051,-1.5797637 0.74996,-0.716929 1.38704,-1.5416304 2.07673,-2.3167154 0.68969,-0.775085 1.44796,-1.5127099 2.36634,-1.9954149 0.9191,-0.4830821 1.98048,-0.6913078 3.01397,-0.5912924 1.03349,0.1000155 2.03525,0.5078998 2.84466,1.1582569"
           id="path849"
           inkscape:connector-curvature="0"
           inkscape:path-effect="#path-effect851"
           inkscape:original-d="m 145.52083,10.305059 c 0.12626,-2.0161374 0.25225,-4.0320105 0.37798,-6.047619 0.12572,-2.0156083 -3.7795,-2.646e-4 -5.66965,0 -1.89014,2.646e-4 1.76416,-1.260185 2.64584,-1.8898808 0.88168,-0.6296957 7.81177,-0.5042328 11.71726,-0.7559524 3.90549,-0.2517195 2.89808,1.7636243 4.34673,2.6458332 1.44864,0.8822092 -2.64557,2.1416007 -3.96875,3.2127978 -1.32318,1.0711971 4.03201,0.3777115 6.04762,0.5669642 2.0156,0.1892525 10.4576,-2.3941137 15.68601,-3.5907738 5.2284,-1.1966599 1.26018,3.4015211 1.88988,5.1026784 0.62969,1.7011574 6.67784,-3.5280422 10.01637,-5.2916666 3.33852,-1.7636242 3.90602,0.3777117 5.85863,0.5669645" />
        <path
           style="fill:none;stroke:url(#linearGradient1191);stroke-width:1;stroke-linecap:butt;stroke-linejoin:round;stroke-opacity:1;stroke-miterlimit:4;stroke-dasharray:none"
           d="m 198.4375,5.7693448 c 0.23569,-1.1657551 0.99025,-2.2165692 2.01955,-2.8124547 1.0293,-0.5958855 2.31631,-0.7269851 3.44462,-0.350882 1.12831,0.376103 2.07925,1.2531872 2.54516,2.3474748 0.46591,1.0942876 0.43907,2.3876766 -0.0718,3.4616952 -0.34521,0.7257073 -0.89325,1.3404758 -1.51192,1.8533749 -0.61867,0.5129 -1.30949,0.93068 -2.00189,1.338611 -0.6924,0.407931 -1.39137,0.809445 -2.03238,1.294146 -0.641,0.4847 -1.22665,1.058539 -1.63536,1.750475 -0.22736,0.384913 -0.39845,0.805464 -0.47955,1.245093 -0.0811,0.439629 -0.0705,0.898759 0.0549,1.327853 0.12541,0.429095 0.36817,0.826773 0.70893,1.116136 0.34077,0.289363 0.78061,0.466013 1.22765,0.468656 0.52096,0.0031 1.02185,-0.225163 1.43636,-0.540755 0.4145,-0.315591 0.75512,-0.716054 1.09548,-1.110473 0.34036,-0.394419 0.68812,-0.789938 1.11262,-1.091955 0.4245,-0.302017 0.93855,-0.506377 1.45822,-0.469614 0.49411,0.03496 0.9598,0.289616 1.29439,0.654882 0.33459,0.365265 0.54379,0.834327 0.64346,1.319544 0.19935,0.970435 -0.024,1.971728 -0.23695,2.939264 -1.05794,4.806284 -1.87823,9.664873 -2.45685,14.552082"
           id="path853"
           inkscape:connector-curvature="0"
           inkscape:path-effect="#path-effect855"
           inkscape:original-d="m 198.4375,5.7693448 c 2.6461,0.88168 5.29193,1.7636244 7.9375,2.6458333 2.64557,0.8822092 -4.78744,4.1574739 -7.18155,6.2366069 -2.39411,2.079134 1.0082,2.771561 1.5119,4.157738 0.50371,1.386178 3.40205,-2.142129 5.10268,-3.212797 1.70063,-1.070668 1.1342,3.275529 1.7009,4.91369 0.5667,1.638161 -1.63764,9.701124 -2.45685,14.552082" />
        <path
           style="fill:none;stroke:url(#linearGradient1191);stroke-width:1;stroke-linecap:butt;stroke-linejoin:round;stroke-opacity:1;stroke-miterlimit:4;stroke-dasharray:none"
           d="m 194.46875,32.038689 c -0.15231,1.619935 0.45132,3.295266 1.60183,4.445785 1.15052,1.15052 2.82585,1.754149 4.44579,1.601836 1.39664,-0.131318 2.71517,-0.787638 4.1174,-0.827539 0.70112,-0.01995 1.42635,0.127035 1.99653,0.535516 0.28509,0.20424 0.52684,0.472041 0.68558,0.784757 0.15875,0.312715 0.23245,0.670689 0.19305,1.019169 -0.061,0.539711 -0.38911,1.024555 -0.8132,1.363908 -0.42409,0.339353 -0.93836,0.547513 -1.45915,0.70175 -0.52079,0.154237 -1.05535,0.259113 -1.57466,0.418287 -0.5193,0.159173 -1.03041,0.377563 -1.44466,0.728854 -0.40529,0.343687 -0.70433,0.807475 -0.8668,1.313419 -0.16248,0.505945 -0.18989,1.052409 -0.0961,1.575465 0.18751,1.046113 0.85586,1.971518 1.71888,2.591769 0.8834,0.634902 1.95209,0.970363 2.84472,1.592223 0.44632,0.310931 0.84979,0.698814 1.10804,1.177543 0.25826,0.478728 0.36027,1.055655 0.20498,1.576962 -0.12452,0.417993 -0.40702,0.779031 -0.75579,1.040917 -0.34876,0.261885 -0.76125,0.429588 -1.18448,0.534932 -0.84646,0.210687 -1.7336,0.179404 -2.59544,0.31403 -1.47755,0.230806 -2.83604,0.940138 -4.28537,1.308749 -0.72466,0.184306 -1.48037,0.282702 -2.22193,0.18681 -0.74156,-0.09589 -1.47055,-0.397765 -1.99717,-0.928594 -0.41381,-0.417115 -0.69087,-0.967749 -0.77922,-1.548622 -0.0884,-0.580874 0.0125,-1.188985 0.28352,-1.710273 0.27107,-0.521289 0.711,-0.95306 1.23727,-1.214329 0.52627,-0.261268 1.13616,-0.350685 1.71528,-0.251477"
           id="path861"
           inkscape:connector-curvature="0"
           inkscape:path-effect="#path-effect863"
           inkscape:original-d="m 194.46875,32.038689 c 2.01614,2.015609 4.03201,4.031483 6.04762,6.047621 2.0156,2.016136 4.66197,1.007671 6.99256,1.511903 2.33059,0.504233 -3.52752,2.141601 -5.29167,3.212799 -1.76415,1.071197 0.50423,3.653504 0.75595,5.480653 0.25172,1.827151 2.77209,2.897555 4.15774,4.346728 1.38565,1.449173 -3.02355,1.259655 -4.53571,1.889879 -1.51217,0.630227 -5.66938,0.377711 -8.50447,0.566965 -2.83509,0.189254 1.63816,-3.150065 2.45685,-4.724701" />
      </g>
      <path
         transform="matrix(-0.98946173,0,0,-0.97340571,208.48457,295.28497)"
         inkscape:original-d="m 8.315476,1.989583 c 0.063261,3.9054894 0.1262568,7.8112431 0.1889881,11.717262 0.062731,3.906018 6.6778439,-3.276058 10.0163689,-4.9136905 3.338525,-1.6376325 0.630225,-2.646e-4 0.944941,0 0.314715,2.645e-4 -3.27553,4.7874335 -4.913691,7.1815475"
         inkscape:path-effect="#path-effect819-9"
         inkscape:connector-curvature="0"
         id="path817-2"
         d="M 8.315476,1.989583 C 6.6344196,1.7687763 4.8678574,2.3128761 3.6023399,3.4412252 2.3368224,4.5695743 1.5944986,6.2624245 1.6218418,7.9576999 c 0.027343,1.6952754 0.8238746,3.3633051 2.1251228,4.4502551 1.3012481,1.08695 3.0844384,1.573795 4.7574995,1.29889 1.8553559,-0.304859 3.4409599,-1.45941 4.9706179,-2.552767 0.76483,-0.546679 1.537611,-1.08808 2.372156,-1.5209256 0.834545,-0.4328454 1.737202,-0.7563934 2.673595,-0.8399979 0.314161,-0.028049 0.630865,-0.028986 0.944941,0 0.859012,0.079278 1.69594,0.3865666 2.402162,0.8819827 0.706221,0.4954158 1.28004,1.1777708 1.646981,1.9585008 0.366941,0.780731 0.526123,1.657963 0.456887,2.517843 -0.06924,0.859879 -0.366727,1.70034 -0.853858,2.412302 -0.487132,0.711961 -1.162736,1.293713 -1.939126,1.66975 -0.77639,0.376037 -1.651703,0.545457 -2.512333,0.486271 -0.860629,-0.05919 -1.704509,-0.346836 -2.422113,-0.825616 -0.717604,-0.478781 -1.307209,-1.147542 -1.692291,-1.919486"
         style="fill:none;stroke:url(#linearGradient1193);stroke-width:1.0189516;stroke-linecap:butt;stroke-linejoin:round;stroke-miterlimit:4;stroke-dasharray:none;stroke-opacity:1" />
      <path
         transform="matrix(-0.98946173,0,0,-0.97340571,208.48457,295.28497)"
         inkscape:original-d="m 26.458333,7.6592257 c 3.780025,-2.646e-4 7.559789,-2.646e-4 11.339285,0 3.779499,2.646e-4 0.126256,-1.3861772 0.188989,-2.0788691 0.06273,-0.6926915 5.543915,-1.6381613 8.315476,-2.4568451 2.77156,-0.8186838 1.260184,-1.1341931 1.889881,-1.7008928 0.629696,-0.56669967 0.252249,2.7715607 0.377976,4.1577379 0.125728,1.3861775 5.039948,1.6376325 7.559524,2.4568454 2.519577,0.819213 1.134192,-3.2760583 1.700893,-4.9136905 0.5667,-1.6376322 2.646098,2.5195768 3.96875,3.7797618"
         inkscape:path-effect="#path-effect839-4"
         inkscape:connector-curvature="0"
         id="path837-9"
         d="m 26.458333,7.6592257 c 0.05522,1.4483002 0.690666,2.8663713 1.734852,3.8715073 1.044187,1.005135 2.485438,1.586097 3.934791,1.586097 1.449352,0 2.890603,-0.580962 3.93479,-1.586097 1.044186,-1.005136 1.679635,-2.4232071 1.734852,-3.8715073 0.01334,-0.3498634 -0.0057,-0.7002999 0.0053,-1.0502445 0.011,-0.3499446 0.05331,-0.7036968 0.18371,-1.0286246 0.142317,-0.3546217 0.387011,-0.664191 0.684533,-0.9039642 0.297522,-0.2397733 0.6467,-0.4113371 1.011769,-0.5241886 0.730137,-0.2257028 1.51053,-0.2181361 2.273366,-0.1720544 0.762836,0.046082 1.529338,0.1285462 2.289052,0.045616 0.759713,-0.08293 1.528163,-0.3503196 2.056756,-0.9022544 0.303769,-0.3171831 0.513844,-0.7115528 0.791298,-1.0519936 0.138727,-0.1702204 0.295711,-0.3279425 0.480351,-0.446804 0.184641,-0.1188615 0.398686,-0.197644 0.618232,-0.2020952 0.207154,-0.0042 0.413779,0.058502 0.589098,0.1689265 0.17532,0.1104246 0.319616,0.2674062 0.423663,0.4465844 0.208093,0.3583566 0.251699,0.7943502 0.193889,1.2046916 -0.11562,0.8206828 -0.603348,1.5399665 -0.828674,2.3375354 -0.270045,0.955855 -0.141004,2.0159485 0.341274,2.884275 0.482278,0.8683266 1.310069,1.5362214 2.257599,1.8341634 0.94753,0.297942 2.004505,0.225216 2.9068,-0.190052 0.902294,-0.4152673 1.642812,-1.1673122 2.053851,-2.071541 0.362873,-0.7982701 0.469525,-1.6842982 0.64575,-2.5432842 0.176225,-0.8589859 0.446266,-1.7393904 1.055143,-2.3704063 0.496092,-0.5141296 1.19987,-0.8218445 1.914159,-0.8369322 0.714289,-0.015088 1.430434,0.2626345 1.947793,0.7553573 0.517359,0.4927228 0.829664,1.1944768 0.849417,1.9086518 0.01975,0.714175 -0.253286,1.4321187 -0.742619,1.9526849"
         style="fill:none;stroke:url(#linearGradient1199);stroke-width:1.0189516;stroke-linecap:butt;stroke-linejoin:round;stroke-miterlimit:4;stroke-dasharray:none;stroke-opacity:1" />
      <path
         transform="matrix(-0.98946173,0,0,-0.97340571,208.48457,295.28497)"
         inkscape:original-d="m 70.303572,4.8244045 c -2.141601,2.6455687 -4.283467,5.2914025 -6.425597,7.9374995 -2.14213,2.646098 -1.385647,-1.386177 -2.078868,-2.078869 -0.693222,-0.6926915 -1.259658,2.141601 -1.889882,3.212798 C 59.279001,14.96703 70.366831,8.2259254 75.595238,5.3913687 80.823643,2.5568119 73.957605,3.6272152 73.138392,2.7455354 72.319178,1.8638555 75.406514,2.6192787 76.540176,2.5565473 c 1.133666,-0.062731 6.29987,3.9054894 9.449406,5.8586308 3.149537,1.9531419 7.181813,-3.4020503 10.772323,-5.1026784 3.590505,-1.7006283 2.016135,3.2755289 3.023809,4.9136902 1.007666,1.6381616 3.906016,-3.1500658 5.858626,-4.724702"
         inkscape:path-effect="#path-effect843-9"
         inkscape:connector-curvature="0"
         id="path841-3"
         d="m 70.303572,4.8244045 c 1.533911,0.6260744 2.73828,2.0066721 3.150382,3.6113603 0.412101,1.6046882 0.022,3.3947642 -1.020433,4.6824722 -1.042431,1.287708 -2.712045,2.041989 -4.36737,1.973046 -1.655324,-0.06894 -3.256434,-0.959448 -4.188176,-2.329379 -0.285831,-0.420255 -0.511638,-0.881357 -0.826949,-1.27997 -0.157655,-0.199307 -0.338053,-0.382643 -0.548193,-0.52554 -0.21014,-0.142898 -0.451249,-0.24448 -0.703726,-0.273359 -0.356379,-0.04076 -0.722464,0.06733 -1.017511,0.271327 -0.295048,0.203997 -0.521017,0.499303 -0.669352,0.825898 -0.29667,0.65319 -0.285246,1.402896 -0.203019,2.115573 0.409289,3.547398 2.54954,6.876515 5.6606,8.629471 1.55553,0.876478 3.329597,1.365201 5.114824,1.394411 1.785226,0.02921 3.577849,-0.402649 5.147049,-1.254412 1.5692,-0.851762 2.910417,-2.122764 3.832881,-3.651471 0.922465,-1.528707 1.422189,-3.311787 1.414106,-5.097235 C 81.070603,12.13115 80.552942,10.348905 79.591113,8.8446532 78.629285,7.3404014 77.225062,6.1204499 75.595238,5.3913687 74.988087,5.1197674 74.340136,4.9085257 73.82137,4.492255 73.561987,4.2841196 73.338731,4.0242823 73.206063,3.7193245 73.073396,3.4143666 73.036455,3.0620931 73.138392,2.7455354 c 0.10189,-0.3164117 0.338429,-0.5817414 0.628315,-0.7444187 0.289887,-0.1626773 0.629598,-0.226519 0.961567,-0.2093539 0.663938,0.03433 1.27207,0.3767475 1.811902,0.7647845 1.562103,1.1228557 2.761084,2.6738116 4.213492,3.9353515 0.726204,0.6307699 1.523451,1.1928744 2.412408,1.5602953 0.888957,0.3674208 1.876718,0.5327956 2.823506,0.362984 1.042062,-0.1868996 1.976856,-0.7646792 2.785314,-1.4482144 0.808459,-0.6835352 1.514431,-1.4788943 2.288537,-2.2011033 0.774106,-0.722209 1.637482,-1.3824786 2.641067,-1.7195885 0.501793,-0.168555 1.034716,-0.2530735 1.562853,-0.217321 0.528136,0.035752 1.051233,0.1942829 1.494552,0.4835488 0.407658,0.2659975 0.740113,0.6359754 1.007895,1.0424638 0.267782,0.4064884 0.473843,0.8502296 0.663545,1.2985076 0.379404,0.8965561 0.710556,1.8407106 1.352369,2.5727188 0.633016,0.7219765 1.551296,1.186759 2.507926,1.269374 0.95662,0.082615 1.94099,-0.2178538 2.68841,-0.8206144 0.74743,-0.6027607 1.24962,-1.5011281 1.37154,-2.4535437 0.12192,-0.9524156 -0.13777,-1.9483161 -0.70925,-2.7199179"
         style="fill:none;stroke:url(#linearGradient1201);stroke-width:1.0189516;stroke-linecap:butt;stroke-linejoin:round;stroke-miterlimit:4;stroke-dasharray:none;stroke-opacity:1" />
      <path
         transform="matrix(-0.98946173,0,0,-0.97340571,208.48457,295.28497)"
         inkscape:original-d="m 111.50297,3.6904758 c 3.78003,0.9446759 7.55979,1.8896163 11.33929,2.8348214 3.7795,0.9452052 2.6e-4,-1.2601852 0,-1.8898809 -2.7e-4,-0.6296959 5.16594,1.3856481 7.74851,2.0788691 2.58257,0.6932208 5.7959,0.8816798 8.69345,1.3229166"
         inkscape:path-effect="#path-effect847-3"
         inkscape:connector-curvature="0"
         id="path845-2"
         d="m 111.50297,3.6904758 c -1.00794,1.6340522 -1.18437,3.7529516 -0.46056,5.5312007 0.7238,1.7782495 2.32985,3.1716165 4.19244,3.6372645 1.86259,0.465647 3.9354,-0.008 5.41087,-1.236436 1.47548,-1.228428 2.31693,-3.1810725 2.19654,-5.0972078 -0.0397,-0.63258 -0.17591,-1.2809522 0,-1.8898809 0.11256,-0.3896294 0.3512,-0.7389785 0.66144,-1.0001918 0.31024,-0.2612132 0.68998,-0.4354719 1.08682,-0.5191194 0.79369,-0.167295 1.63215,0.02801 2.35034,0.4049904 1.4364,0.7539617 2.40231,2.1562872 3.64991,3.1931899 1.18435,0.9843337 2.64033,1.6384178 4.1628,1.8700985 1.52247,0.2316807 3.10711,0.040299 4.53065,-0.5471819"
         style="fill:none;stroke:url(#linearGradient1203);stroke-width:1.0189516;stroke-linecap:butt;stroke-linejoin:round;stroke-miterlimit:4;stroke-dasharray:none;stroke-opacity:1" />
      <path
         transform="matrix(-0.98946173,0,0,-0.97340571,208.48457,295.28497)"
         inkscape:original-d="m 145.52083,10.305059 c 0.12626,-2.0161374 0.25225,-4.0320105 0.37798,-6.047619 0.12572,-2.0156083 -3.7795,-2.646e-4 -5.66965,0 -1.89014,2.646e-4 1.76416,-1.260185 2.64584,-1.8898808 0.88168,-0.6296957 7.81177,-0.5042328 11.71726,-0.7559524 3.90549,-0.2517195 2.89808,1.7636243 4.34673,2.6458332 1.44864,0.8822092 -2.64557,2.1416007 -3.96875,3.2127978 -1.32318,1.0711971 4.03201,0.3777115 6.04762,0.5669642 2.0156,0.1892525 10.4576,-2.3941137 15.68601,-3.5907738 5.2284,-1.1966599 1.26018,3.4015211 1.88988,5.1026784 0.62969,1.7011574 6.67784,-3.5280422 10.01637,-5.2916666 3.33852,-1.7636242 3.90602,0.3777117 5.85863,0.5669645"
         inkscape:path-effect="#path-effect851-7"
         inkscape:connector-curvature="0"
         id="path849-5"
         d="m 145.52083,10.305059 c 0.89485,0.270711 1.90981,0.110282 2.67754,-0.4232263 0.76773,-0.5335084 1.27201,-1.4288177 1.33033,-2.3619007 0.0583,-0.9330829 -0.33055,-1.8842149 -1.02588,-2.5091655 -0.69533,-0.6249506 -1.68241,-0.9105089 -2.60401,-0.7533265 -0.54491,0.092937 -1.05406,0.3286219 -1.54846,0.5758829 -0.49439,0.2472609 -0.98582,0.5102271 -1.51666,0.6644056 -0.53084,0.1541786 -1.11389,0.1925406 -1.62839,-0.00958 -0.25725,-0.101061 -0.49283,-0.2619419 -0.66865,-0.4751928 -0.17583,-0.2132509 -0.28993,-0.4796833 -0.30749,-0.7555143 -0.0191,-0.3000086 0.0764,-0.6019228 0.24383,-0.8516114 0.16741,-0.2496886 0.40378,-0.4488628 0.66634,-0.5952467 0.52514,-0.2927678 1.13829,-0.3750488 1.73567,-0.4430227 3.8894,-0.4425644 7.81091,-0.503618 11.71726,-0.7559524 1.00266,-0.064767 2.04968,-0.1351068 2.97324,0.2605622 0.46178,0.1978345 0.88059,0.5155175 1.14769,0.9410026 0.2671,0.4254852 0.37047,0.963177 0.2258,1.4442684 -0.12642,0.4204083 -0.42896,0.7706676 -0.78275,1.030594 -0.35378,0.2599264 -0.75923,0.4391172 -1.16276,0.6120047 -0.40352,0.1728876 -0.81178,0.3431526 -1.17605,0.5881684 -0.36427,0.2450157 -0.68633,0.5735586 -0.84719,0.9820307 -0.13073,0.3319737 -0.14808,0.7053355 -0.0617,1.0515058 0.0864,0.3461702 0.27447,0.66448 0.52655,0.9169807 0.25207,0.2525007 0.56678,0.4397835 0.90477,0.5540587 0.33799,0.114275 0.6988,0.156425 1.05506,0.137022 0.71252,-0.03881 1.39545,-0.3209484 1.99388,-0.7096201 0.59844,-0.3886717 1.12103,-0.8818756 1.62905,-1.3829829 2.2728,-2.24188 4.43195,-4.7747007 7.3832,-5.9919739 1.47563,-0.6086366 3.13434,-0.8513896 4.68583,-0.4761447 0.77574,0.1876224 1.51701,0.5286096 2.14738,1.0181112 0.63037,0.4895016 1.14774,1.1289022 1.4696,1.8592336 0.37148,0.8429134 0.47522,1.774526 0.67373,2.6740209 0.0993,0.4497475 0.22381,0.8962428 0.41584,1.314871 0.19203,0.4186281 0.45405,0.8100968 0.80031,1.1137865 0.39001,0.3420557 0.87939,0.5639294 1.38938,0.6588934 0.50999,0.09496 1.03973,0.06549 1.54341,-0.05867 1.00735,-0.2483076 1.89055,-0.8628348 2.64051,-1.5797637 0.74996,-0.716929 1.38704,-1.5416304 2.07673,-2.3167154 0.68969,-0.775085 1.44796,-1.5127099 2.36634,-1.9954149 0.9191,-0.4830821 1.98048,-0.6913078 3.01397,-0.5912924 1.03349,0.1000155 2.03525,0.5078998 2.84466,1.1582569"
         style="fill:none;stroke:url(#linearGradient1205);stroke-width:1.0189516;stroke-linecap:butt;stroke-linejoin:round;stroke-miterlimit:4;stroke-dasharray:none;stroke-opacity:1" />
      <path
         transform="matrix(-0.98946173,0,0,-0.97340571,208.48457,295.28497)"
         inkscape:original-d="m 198.4375,5.7693448 c 2.6461,0.88168 5.29193,1.7636244 7.9375,2.6458333 2.64557,0.8822092 -4.78744,4.1574739 -7.18155,6.2366069 -2.39411,2.079134 1.0082,2.771561 1.5119,4.157738 0.50371,1.386178 3.40205,-2.142129 5.10268,-3.212797 1.70063,-1.070668 1.1342,3.275529 1.7009,4.91369 0.5667,1.638161 -1.63764,9.701124 -2.45685,14.552082"
         inkscape:path-effect="#path-effect855-9"
         inkscape:connector-curvature="0"
         id="path853-3"
         d="m 198.4375,5.7693448 c 0.23569,-1.1657551 0.99025,-2.2165692 2.01955,-2.8124547 1.0293,-0.5958855 2.31631,-0.7269851 3.44462,-0.350882 1.12831,0.376103 2.07925,1.2531872 2.54516,2.3474748 0.46591,1.0942876 0.43907,2.3876766 -0.0718,3.4616952 -0.34521,0.7257073 -0.89325,1.3404758 -1.51192,1.8533749 -0.61867,0.5129 -1.30949,0.93068 -2.00189,1.338611 -0.6924,0.407931 -1.39137,0.809445 -2.03238,1.294146 -0.641,0.4847 -1.22665,1.058539 -1.63536,1.750475 -0.22736,0.384913 -0.39845,0.805464 -0.47955,1.245093 -0.0811,0.439629 -0.0705,0.898759 0.0549,1.327853 0.12541,0.429095 0.36817,0.826773 0.70893,1.116136 0.34077,0.289363 0.78061,0.466013 1.22765,0.468656 0.52096,0.0031 1.02185,-0.225163 1.43636,-0.540755 0.4145,-0.315591 0.75512,-0.716054 1.09548,-1.110473 0.34036,-0.394419 0.68812,-0.789938 1.11262,-1.091955 0.4245,-0.302017 0.93855,-0.506377 1.45822,-0.469614 0.49411,0.03496 0.9598,0.289616 1.29439,0.654882 0.33459,0.365265 0.54379,0.834327 0.64346,1.319544 0.19935,0.970435 -0.024,1.971728 -0.23695,2.939264 -1.05794,4.806284 -1.87823,9.664873 -2.45685,14.552082"
         style="fill:none;stroke:url(#linearGradient1207);stroke-width:1.0189516;stroke-linecap:butt;stroke-linejoin:round;stroke-miterlimit:4;stroke-dasharray:none;stroke-opacity:1" />
      <path
         style="fill:none;stroke:url(#linearGradient1211);stroke-width:1.0189516;stroke-linecap:butt;stroke-linejoin:round;stroke-miterlimit:4;stroke-dasharray:none;stroke-opacity:1"
         d="m 70.303572,4.8244045 c 1.533911,0.6260744 2.73828,2.0066721 3.150382,3.6113603 0.412101,1.6046882 0.022,3.3947642 -1.020433,4.6824722 -1.042431,1.287708 -2.712045,2.041989 -4.36737,1.973046 -1.655324,-0.06894 -3.256434,-0.959448 -4.188176,-2.329379 -0.285831,-0.420255 -0.511638,-0.881357 -0.826949,-1.27997 -0.157655,-0.199307 -0.338053,-0.382643 -0.548193,-0.52554 -0.21014,-0.142898 -0.451249,-0.24448 -0.703726,-0.273359 -0.356379,-0.04076 -0.722464,0.06733 -1.017511,0.271327 -0.295048,0.203997 -0.521017,0.499303 -0.669352,0.825898 -0.29667,0.65319 -0.285246,1.402896 -0.203019,2.115573 0.409289,3.547398 2.54954,6.876515 5.6606,8.629471 1.55553,0.876478 3.329597,1.365201 5.114824,1.394411 1.785226,0.02921 3.577849,-0.402649 5.147049,-1.254412 1.5692,-0.851762 2.910417,-2.122764 3.832881,-3.651471 0.922465,-1.528707 1.422189,-3.311787 1.414106,-5.097235 C 81.070603,12.13115 80.552942,10.348905 79.591113,8.8446532 78.629285,7.3404014 77.225062,6.1204499 75.595238,5.3913687 74.988087,5.1197674 74.340136,4.9085257 73.82137,4.492255 73.561987,4.2841196 73.338731,4.0242823 73.206063,3.7193245 73.073396,3.4143666 73.036455,3.0620931 73.138392,2.7455354 c 0.10189,-0.3164117 0.338429,-0.5817414 0.628315,-0.7444187 0.289887,-0.1626773 0.629598,-0.226519 0.961567,-0.2093539 0.663938,0.03433 1.27207,0.3767475 1.811902,0.7647845 1.562103,1.1228557 2.761084,2.6738116 4.213492,3.9353515 0.726204,0.6307699 1.523451,1.1928744 2.412408,1.5602953 0.888957,0.3674208 1.876718,0.5327956 2.823506,0.362984 1.042062,-0.1868996 1.976856,-0.7646792 2.785314,-1.4482144 0.808459,-0.6835352 1.514431,-1.4788943 2.288537,-2.2011033 0.774106,-0.722209 1.637482,-1.3824786 2.641067,-1.7195885 0.501793,-0.168555 1.034716,-0.2530735 1.562853,-0.217321 0.528136,0.035752 1.051233,0.1942829 1.494552,0.4835488 0.407658,0.2659975 0.740113,0.6359754 1.007895,1.0424638 0.267782,0.4064884 0.473843,0.8502296 0.663545,1.2985076 0.379404,0.8965561 0.710556,1.8407106 1.352369,2.5727188 0.633016,0.7219765 1.551296,1.186759 2.507926,1.269374 0.95662,0.082615 1.94099,-0.2178538 2.68841,-0.8206144 0.74743,-0.6027607 1.24962,-1.5011281 1.37154,-2.4535437 0.12192,-0.9524156 -0.13777,-1.9483161 -0.70925,-2.7199179"
         id="path1064"
         inkscape:connector-curvature="0"
         inkscape:path-effect="#path-effect1066"
         inkscape:original-d="m 70.303572,4.8244045 c -2.141601,2.6455687 -4.283467,5.2914025 -6.425597,7.9374995 -2.14213,2.646098 -1.385647,-1.386177 -2.078868,-2.078869 -0.693222,-0.6926915 -1.259658,2.141601 -1.889882,3.212798 C 59.279001,14.96703 70.366831,8.2259254 75.595238,5.3913687 80.823643,2.5568119 73.957605,3.6272152 73.138392,2.7455354 72.319178,1.8638555 75.406514,2.6192787 76.540176,2.5565473 c 1.133666,-0.062731 6.29987,3.9054894 9.449406,5.8586308 3.149537,1.9531419 7.181813,-3.4020503 10.772323,-5.1026784 3.590505,-1.7006283 2.016135,3.2755289 3.023809,4.9136902 1.007666,1.6381616 3.906016,-3.1500658 5.858626,-4.724702"
         transform="matrix(-0.98946173,0,0,-0.97340571,208.48457,295.28497)" />
      <g
         id="g1231"
         style="stroke-width:1;stroke-miterlimit:4;stroke-dasharray:none;stroke:url(#linearGradient1191);fill:none;stroke-opacity:1">
        <path
           inkscape:original-d="m 8.315476,1.989583 c 0.063261,3.9054894 0.1262568,7.8112431 0.1889881,11.717262 0.062731,3.906018 6.6778439,-3.276058 10.0163689,-4.9136905 3.338525,-1.6376325 0.630225,-2.646e-4 0.944941,0 0.314715,2.645e-4 -3.27553,4.7874335 -4.913691,7.1815475"
           inkscape:path-effect="#path-effect819"
           inkscape:connector-curvature="0"
           id="path1213"
           d="M 8.315476,1.989583 C 6.6344196,1.7687763 4.8678574,2.3128761 3.6023399,3.4412252 2.3368224,4.5695743 1.5944986,6.2624245 1.6218418,7.9576999 c 0.027343,1.6952754 0.8238746,3.3633051 2.1251228,4.4502551 1.3012481,1.08695 3.0844384,1.573795 4.7574995,1.29889 1.8553559,-0.304859 3.4409599,-1.45941 4.9706179,-2.552767 0.76483,-0.546679 1.537611,-1.08808 2.372156,-1.5209256 0.834545,-0.4328454 1.737202,-0.7563934 2.673595,-0.8399979 0.314161,-0.028049 0.630865,-0.028986 0.944941,0 0.859012,0.079278 1.69594,0.3865666 2.402162,0.8819827 0.706221,0.4954158 1.28004,1.1777708 1.646981,1.9585008 0.366941,0.780731 0.526123,1.657963 0.456887,2.517843 -0.06924,0.859879 -0.366727,1.70034 -0.853858,2.412302 -0.487132,0.711961 -1.162736,1.293713 -1.939126,1.66975 -0.77639,0.376037 -1.651703,0.545457 -2.512333,0.486271 -0.860629,-0.05919 -1.704509,-0.346836 -2.422113,-0.825616 -0.717604,-0.478781 -1.307209,-1.147542 -1.692291,-1.919486"
           style="fill:none;stroke:url(#linearGradient1191);stroke-width:1;stroke-linecap:butt;stroke-linejoin:round;stroke-opacity:1;stroke-miterlimit:4;stroke-dasharray:none" />
        <path
           inkscape:original-d="M 13.985119,22.967261 C 10.07963,22.274041 6.1738755,21.581084 2.2678571,20.888392 c -3.9060185,-0.692691 -0.5037036,2.267593 -0.7559524,3.401786 -0.2522487,1.134193 2.646e-4,6.173347 10e-8,9.260417 -2.646e-4,3.08707 2.645e-4,3.275529 0,4.91369"
           inkscape:path-effect="#path-effect823"
           inkscape:connector-curvature="0"
           id="path1215"
           d="m 13.985119,22.967261 c -0.10313,-1.346522 -0.665271,-2.65371 -1.5717,-3.654782 -0.906429,-1.001072 -2.151549,-1.689851 -3.4812496,-1.925765 -1.3297003,-0.235915 -2.7357731,-0.01751 -3.9312577,0.610643 -1.1954845,0.628152 -2.1730022,1.662174 -2.7330546,2.891035 -0.484144,1.062304 -0.6556924,2.238673 -0.7559524,3.401786 -0.2652549,3.077213 -0.06833,6.172549 10e-8,9.260417 0.036238,1.637629 0.036238,3.276061 0,4.91369"
           style="fill:none;stroke:url(#linearGradient1191);stroke-width:1;stroke-linecap:butt;stroke-linejoin:round;stroke-opacity:1;stroke-miterlimit:4;stroke-dasharray:none" />
        <path
           inkscape:original-d="m 7.3705357,24.857142 c 0.3152446,2.204597 0.6302248,4.409457 0.9449403,6.614585 0.3147158,2.205125 6.173876,-1.890147 9.260417,-2.834823 3.086541,-0.944676 -1.637633,4.03148 -2.456846,6.047618 -0.819213,2.016139 -6.047354,0.503704 -9.071428,0.755955 -3.0240742,0.252248 -0.7556878,4.661439 -1.1339285,6.992559 -0.3782409,2.331116 4.9139549,0.503703 7.3705355,0.755951 C 14.740807,43.441236 10.39461,46.7165 9.4494047,48.480654 8.5041996,50.244808 5.5439153,55.913919 3.5907739,59.63095 1.6376322,63.34798 4.0950065,56.354892 4.346726,54.717261"
           inkscape:path-effect="#path-effect827"
           inkscape:connector-curvature="0"
           id="path1217"
           d="m 7.3705357,24.857142 c -0.7652848,0.231193 -1.442106,0.743806 -1.872002,1.417824 -0.4298959,0.674018 -0.6093184,1.503878 -0.49626,2.295287 0.1130584,0.79141 0.5176646,1.537837 1.1190897,2.064523 0.6014251,0.526687 1.3947052,0.829286 2.1941126,0.836951 0.849853,0.0081 1.674675,-0.305038 2.412935,-0.726095 0.73826,-0.421057 1.40814,-0.950342 2.112842,-1.425433 0.704702,-0.475092 1.460361,-0.902504 2.290687,-1.083816 0.415164,-0.09066 0.846164,-0.117961 1.266712,-0.05698 0.420547,0.06098 0.830465,0.211886 1.177241,0.457499 0.557017,0.394522 0.929617,1.026499 1.04894,1.698568 0.119324,0.67207 -0.0064,1.378018 -0.310501,1.989135 -0.304057,0.611117 -0.780473,1.128959 -1.338714,1.521746 -0.558242,0.392788 -1.196689,0.663609 -1.856571,0.838169 -1.475176,0.390231 -3.027888,0.303631 -4.553048,0.255579 -1.5251608,-0.04805 -3.0941799,-0.04742 -4.51838,0.500376 -0.7163801,0.275543 -1.3840986,0.689421 -1.9190044,1.239876 -0.5349058,0.550454 -0.9335337,1.240026 -1.1017943,1.9889 -0.1682606,0.748874 -0.099306,1.555859 0.2321762,2.248133 0.3314823,0.692274 0.9308627,1.260322 1.654694,1.51565 0.6184995,0.218173 1.296455,0.20651 1.9444987,0.105612 0.6480437,-0.100898 1.2795779,-0.287455 1.9232473,-0.413276 0.6436694,-0.12582 1.3130215,-0.189929 1.9525795,-0.04465 0.319779,0.07264 0.629207,0.198008 0.899449,0.383763 0.270241,0.185754 0.500488,0.433031 0.650761,0.724499 0.244974,0.47515 0.264481,1.046209 0.125218,1.562335 -0.139262,0.516125 -0.426965,0.982113 -0.7676,1.394118 -0.68127,0.824008 -1.581114,1.45806 -2.1924393,2.335214 -0.67565,0.969449 -0.9473705,2.164483 -1.0672374,3.340054 -0.1198669,1.17557 -0.1026864,2.363991 -0.2706251,3.533663 -0.1679387,1.169671 -0.5424553,2.350108 -1.3319146,3.229363 -0.3947297,0.439627 -0.8899117,0.794751 -1.447095,0.991297 C 4.7753492,59.771577 4.1555793,59.804382 3.5907739,59.63095 3.0201988,59.455747 2.5169693,59.06976 2.1998649,58.564095 1.8827604,58.05843 1.7544437,57.437334 1.8452018,56.847406 1.93596,56.257478 2.2450309,55.703672 2.6994633,55.316705 3.1538957,54.929738 3.7498736,54.71286 4.346726,54.717261"
           style="fill:none;stroke:url(#linearGradient1191);stroke-width:1;stroke-linecap:butt;stroke-linejoin:round;stroke-opacity:1;stroke-miterlimit:4;stroke-dasharray:none" />
        <path
           inkscape:original-d="m 26.458333,7.6592257 c 3.780025,-2.646e-4 7.559789,-2.646e-4 11.339285,0 3.779499,2.646e-4 0.126256,-1.3861772 0.188989,-2.0788691 0.06273,-0.6926915 5.543915,-1.6381613 8.315476,-2.4568451 2.77156,-0.8186838 1.260184,-1.1341931 1.889881,-1.7008928 0.629696,-0.56669967 0.252249,2.7715607 0.377976,4.1577379 0.125728,1.3861775 5.039948,1.6376325 7.559524,2.4568454 2.519577,0.819213 1.134192,-3.2760583 1.700893,-4.9136905 0.5667,-1.6376322 2.646098,2.5195768 3.96875,3.7797618"
           inkscape:path-effect="#path-effect839"
           inkscape:connector-curvature="0"
           id="path1219"
           d="m 26.458333,7.6592257 c 0.05522,1.4483002 0.690666,2.8663713 1.734852,3.8715073 1.044187,1.005135 2.485438,1.586097 3.934791,1.586097 1.449352,0 2.890603,-0.580962 3.93479,-1.586097 1.044186,-1.005136 1.679635,-2.4232071 1.734852,-3.8715073 0.01334,-0.3498634 -0.0057,-0.7002999 0.0053,-1.0502445 0.011,-0.3499446 0.05331,-0.7036968 0.18371,-1.0286246 0.142317,-0.3546217 0.387011,-0.664191 0.684533,-0.9039642 0.297522,-0.2397733 0.6467,-0.4113371 1.011769,-0.5241886 0.730137,-0.2257028 1.51053,-0.2181361 2.273366,-0.1720544 0.762836,0.046082 1.529338,0.1285462 2.289052,0.045616 0.759713,-0.08293 1.528163,-0.3503196 2.056756,-0.9022544 0.303769,-0.3171831 0.513844,-0.7115528 0.791298,-1.0519936 0.138727,-0.1702204 0.295711,-0.3279425 0.480351,-0.446804 0.184641,-0.1188615 0.398686,-0.197644 0.618232,-0.2020952 0.207154,-0.0042 0.413779,0.058502 0.589098,0.1689265 0.17532,0.1104246 0.319616,0.2674062 0.423663,0.4465844 0.208093,0.3583566 0.251699,0.7943502 0.193889,1.2046916 -0.11562,0.8206828 -0.603348,1.5399665 -0.828674,2.3375354 -0.270045,0.955855 -0.141004,2.0159485 0.341274,2.884275 0.482278,0.8683266 1.310069,1.5362214 2.257599,1.8341634 0.94753,0.297942 2.004505,0.225216 2.9068,-0.190052 0.902294,-0.4152673 1.642812,-1.1673122 2.053851,-2.071541 0.362873,-0.7982701 0.469525,-1.6842982 0.64575,-2.5432842 0.176225,-0.8589859 0.446266,-1.7393904 1.055143,-2.3704063 0.496092,-0.5141296 1.19987,-0.8218445 1.914159,-0.8369322 0.714289,-0.015088 1.430434,0.2626345 1.947793,0.7553573 0.517359,0.4927228 0.829664,1.1944768 0.849417,1.9086518 0.01975,0.714175 -0.253286,1.4321187 -0.742619,1.9526849"
           style="fill:none;stroke:url(#linearGradient1191);stroke-width:1;stroke-linecap:butt;stroke-linejoin:round;stroke-opacity:1;stroke-miterlimit:4;stroke-dasharray:none" />
        <path
           inkscape:original-d="m 70.303572,4.8244045 c -2.141601,2.6455687 -4.283467,5.2914025 -6.425597,7.9374995 -2.14213,2.646098 -1.385647,-1.386177 -2.078868,-2.078869 -0.693222,-0.6926915 -1.259658,2.141601 -1.889882,3.212798 C 59.279001,14.96703 70.366831,8.2259254 75.595238,5.3913687 80.823643,2.5568119 73.957605,3.6272152 73.138392,2.7455354 72.319178,1.8638555 75.406514,2.6192787 76.540176,2.5565473 c 1.133666,-0.062731 6.29987,3.9054894 9.449406,5.8586308 3.149537,1.9531419 7.181813,-3.4020503 10.772323,-5.1026784 3.590505,-1.7006283 2.016135,3.2755289 3.023809,4.9136902 1.007666,1.6381616 3.906016,-3.1500658 5.858626,-4.724702"
           inkscape:path-effect="#path-effect843"
           inkscape:connector-curvature="0"
           id="path1221"
           d="m 70.303572,4.8244045 c 1.533911,0.6260744 2.73828,2.0066721 3.150382,3.6113603 0.412101,1.6046882 0.022,3.3947642 -1.020433,4.6824722 -1.042431,1.287708 -2.712045,2.041989 -4.36737,1.973046 -1.655324,-0.06894 -3.256434,-0.959448 -4.188176,-2.329379 -0.285831,-0.420255 -0.511638,-0.881357 -0.826949,-1.27997 -0.157655,-0.199307 -0.338053,-0.382643 -0.548193,-0.52554 -0.21014,-0.142898 -0.451249,-0.24448 -0.703726,-0.273359 -0.356379,-0.04076 -0.722464,0.06733 -1.017511,0.271327 -0.295048,0.203997 -0.521017,0.499303 -0.669352,0.825898 -0.29667,0.65319 -0.285246,1.402896 -0.203019,2.115573 0.409289,3.547398 2.54954,6.876515 5.6606,8.629471 1.55553,0.876478 3.329597,1.365201 5.114824,1.394411 1.785226,0.02921 3.577849,-0.402649 5.147049,-1.254412 1.5692,-0.851762 2.910417,-2.122764 3.832881,-3.651471 0.922465,-1.528707 1.422189,-3.311787 1.414106,-5.097235 C 81.070603,12.13115 80.552942,10.348905 79.591113,8.8446532 78.629285,7.3404014 77.225062,6.1204499 75.595238,5.3913687 74.988087,5.1197674 74.340136,4.9085257 73.82137,4.492255 73.561987,4.2841196 73.338731,4.0242823 73.206063,3.7193245 73.073396,3.4143666 73.036455,3.0620931 73.138392,2.7455354 c 0.10189,-0.3164117 0.338429,-0.5817414 0.628315,-0.7444187 0.289887,-0.1626773 0.629598,-0.226519 0.961567,-0.2093539 0.663938,0.03433 1.27207,0.3767475 1.811902,0.7647845 1.562103,1.1228557 2.761084,2.6738116 4.213492,3.9353515 0.726204,0.6307699 1.523451,1.1928744 2.412408,1.5602953 0.888957,0.3674208 1.876718,0.5327956 2.823506,0.362984 1.042062,-0.1868996 1.976856,-0.7646792 2.785314,-1.4482144 0.808459,-0.6835352 1.514431,-1.4788943 2.288537,-2.2011033 0.774106,-0.722209 1.637482,-1.3824786 2.641067,-1.7195885 0.501793,-0.168555 1.034716,-0.2530735 1.562853,-0.217321 0.528136,0.035752 1.051233,0.1942829 1.494552,0.4835488 0.407658,0.2659975 0.740113,0.6359754 1.007895,1.0424638 0.267782,0.4064884 0.473843,0.8502296 0.663545,1.2985076 0.379404,0.8965561 0.710556,1.8407106 1.352369,2.5727188 0.633016,0.7219765 1.551296,1.186759 2.507926,1.269374 0.95662,0.082615 1.94099,-0.2178538 2.68841,-0.8206144 0.74743,-0.6027607 1.24962,-1.5011281 1.37154,-2.4535437 0.12192,-0.9524156 -0.13777,-1.9483161 -0.70925,-2.7199179"
           style="fill:none;stroke:url(#linearGradient1191);stroke-width:1;stroke-linecap:butt;stroke-linejoin:round;stroke-opacity:1;stroke-miterlimit:4;stroke-dasharray:none" />
        <path
           inkscape:original-d="m 111.50297,3.6904758 c 3.78003,0.9446759 7.55979,1.8896163 11.33929,2.8348214 3.7795,0.9452052 2.6e-4,-1.2601852 0,-1.8898809 -2.7e-4,-0.6296959 5.16594,1.3856481 7.74851,2.0788691 2.58257,0.6932208 5.7959,0.8816798 8.69345,1.3229166"
           inkscape:path-effect="#path-effect847"
           inkscape:connector-curvature="0"
           id="path1223"
           d="m 111.50297,3.6904758 c -1.00794,1.6340522 -1.18437,3.7529516 -0.46056,5.5312007 0.7238,1.7782495 2.32985,3.1716165 4.19244,3.6372645 1.86259,0.465647 3.9354,-0.008 5.41087,-1.236436 1.47548,-1.228428 2.31693,-3.1810725 2.19654,-5.0972078 -0.0397,-0.63258 -0.17591,-1.2809522 0,-1.8898809 0.11256,-0.3896294 0.3512,-0.7389785 0.66144,-1.0001918 0.31024,-0.2612132 0.68998,-0.4354719 1.08682,-0.5191194 0.79369,-0.167295 1.63215,0.02801 2.35034,0.4049904 1.4364,0.7539617 2.40231,2.1562872 3.64991,3.1931899 1.18435,0.9843337 2.64033,1.6384178 4.1628,1.8700985 1.52247,0.2316807 3.10711,0.040299 4.53065,-0.5471819"
           style="fill:none;stroke:url(#linearGradient1191);stroke-width:1;stroke-linecap:butt;stroke-linejoin:round;stroke-opacity:1;stroke-miterlimit:4;stroke-dasharray:none" />
        <path
           inkscape:original-d="m 145.52083,10.305059 c 0.12626,-2.0161374 0.25225,-4.0320105 0.37798,-6.047619 0.12572,-2.0156083 -3.7795,-2.646e-4 -5.66965,0 -1.89014,2.646e-4 1.76416,-1.260185 2.64584,-1.8898808 0.88168,-0.6296957 7.81177,-0.5042328 11.71726,-0.7559524 3.90549,-0.2517195 2.89808,1.7636243 4.34673,2.6458332 1.44864,0.8822092 -2.64557,2.1416007 -3.96875,3.2127978 -1.32318,1.0711971 4.03201,0.3777115 6.04762,0.5669642 2.0156,0.1892525 10.4576,-2.3941137 15.68601,-3.5907738 5.2284,-1.1966599 1.26018,3.4015211 1.88988,5.1026784 0.62969,1.7011574 6.67784,-3.5280422 10.01637,-5.2916666 3.33852,-1.7636242 3.90602,0.3777117 5.85863,0.5669645"
           inkscape:path-effect="#path-effect851"
           inkscape:connector-curvature="0"
           id="path1225"
           d="m 145.52083,10.305059 c 0.89485,0.270711 1.90981,0.110282 2.67754,-0.4232263 0.76773,-0.5335084 1.27201,-1.4288177 1.33033,-2.3619007 0.0583,-0.9330829 -0.33055,-1.8842149 -1.02588,-2.5091655 -0.69533,-0.6249506 -1.68241,-0.9105089 -2.60401,-0.7533265 -0.54491,0.092937 -1.05406,0.3286219 -1.54846,0.5758829 -0.49439,0.2472609 -0.98582,0.5102271 -1.51666,0.6644056 -0.53084,0.1541786 -1.11389,0.1925406 -1.62839,-0.00958 -0.25725,-0.101061 -0.49283,-0.2619419 -0.66865,-0.4751928 -0.17583,-0.2132509 -0.28993,-0.4796833 -0.30749,-0.7555143 -0.0191,-0.3000086 0.0764,-0.6019228 0.24383,-0.8516114 0.16741,-0.2496886 0.40378,-0.4488628 0.66634,-0.5952467 0.52514,-0.2927678 1.13829,-0.3750488 1.73567,-0.4430227 3.8894,-0.4425644 7.81091,-0.503618 11.71726,-0.7559524 1.00266,-0.064767 2.04968,-0.1351068 2.97324,0.2605622 0.46178,0.1978345 0.88059,0.5155175 1.14769,0.9410026 0.2671,0.4254852 0.37047,0.963177 0.2258,1.4442684 -0.12642,0.4204083 -0.42896,0.7706676 -0.78275,1.030594 -0.35378,0.2599264 -0.75923,0.4391172 -1.16276,0.6120047 -0.40352,0.1728876 -0.81178,0.3431526 -1.17605,0.5881684 -0.36427,0.2450157 -0.68633,0.5735586 -0.84719,0.9820307 -0.13073,0.3319737 -0.14808,0.7053355 -0.0617,1.0515058 0.0864,0.3461702 0.27447,0.66448 0.52655,0.9169807 0.25207,0.2525007 0.56678,0.4397835 0.90477,0.5540587 0.33799,0.114275 0.6988,0.156425 1.05506,0.137022 0.71252,-0.03881 1.39545,-0.3209484 1.99388,-0.7096201 0.59844,-0.3886717 1.12103,-0.8818756 1.62905,-1.3829829 2.2728,-2.24188 4.43195,-4.7747007 7.3832,-5.9919739 1.47563,-0.6086366 3.13434,-0.8513896 4.68583,-0.4761447 0.77574,0.1876224 1.51701,0.5286096 2.14738,1.0181112 0.63037,0.4895016 1.14774,1.1289022 1.4696,1.8592336 0.37148,0.8429134 0.47522,1.774526 0.67373,2.6740209 0.0993,0.4497475 0.22381,0.8962428 0.41584,1.314871 0.19203,0.4186281 0.45405,0.8100968 0.80031,1.1137865 0.39001,0.3420557 0.87939,0.5639294 1.38938,0.6588934 0.50999,0.09496 1.03973,0.06549 1.54341,-0.05867 1.00735,-0.2483076 1.89055,-0.8628348 2.64051,-1.5797637 0.74996,-0.716929 1.38704,-1.5416304 2.07673,-2.3167154 0.68969,-0.775085 1.44796,-1.5127099 2.36634,-1.9954149 0.9191,-0.4830821 1.98048,-0.6913078 3.01397,-0.5912924 1.03349,0.1000155 2.03525,0.5078998 2.84466,1.1582569"
           style="fill:none;stroke:url(#linearGradient1191);stroke-width:1;stroke-linecap:butt;stroke-linejoin:round;stroke-opacity:1;stroke-miterlimit:4;stroke-dasharray:none" />
        <path
           inkscape:original-d="m 198.4375,5.7693448 c 2.6461,0.88168 5.29193,1.7636244 7.9375,2.6458333 2.64557,0.8822092 -4.78744,4.1574739 -7.18155,6.2366069 -2.39411,2.079134 1.0082,2.771561 1.5119,4.157738 0.50371,1.386178 3.40205,-2.142129 5.10268,-3.212797 1.70063,-1.070668 1.1342,3.275529 1.7009,4.91369 0.5667,1.638161 -1.63764,9.701124 -2.45685,14.552082"
           inkscape:path-effect="#path-effect855"
           inkscape:connector-curvature="0"
           id="path1227"
           d="m 198.4375,5.7693448 c 0.23569,-1.1657551 0.99025,-2.2165692 2.01955,-2.8124547 1.0293,-0.5958855 2.31631,-0.7269851 3.44462,-0.350882 1.12831,0.376103 2.07925,1.2531872 2.54516,2.3474748 0.46591,1.0942876 0.43907,2.3876766 -0.0718,3.4616952 -0.34521,0.7257073 -0.89325,1.3404758 -1.51192,1.8533749 -0.61867,0.5129 -1.30949,0.93068 -2.00189,1.338611 -0.6924,0.407931 -1.39137,0.809445 -2.03238,1.294146 -0.641,0.4847 -1.22665,1.058539 -1.63536,1.750475 -0.22736,0.384913 -0.39845,0.805464 -0.47955,1.245093 -0.0811,0.439629 -0.0705,0.898759 0.0549,1.327853 0.12541,0.429095 0.36817,0.826773 0.70893,1.116136 0.34077,0.289363 0.78061,0.466013 1.22765,0.468656 0.52096,0.0031 1.02185,-0.225163 1.43636,-0.540755 0.4145,-0.315591 0.75512,-0.716054 1.09548,-1.110473 0.34036,-0.394419 0.68812,-0.789938 1.11262,-1.091955 0.4245,-0.302017 0.93855,-0.506377 1.45822,-0.469614 0.49411,0.03496 0.9598,0.289616 1.29439,0.654882 0.33459,0.365265 0.54379,0.834327 0.64346,1.319544 0.19935,0.970435 -0.024,1.971728 -0.23695,2.939264 -1.05794,4.806284 -1.87823,9.664873 -2.45685,14.552082"
           style="fill:none;stroke:url(#linearGradient1191);stroke-width:1;stroke-linecap:butt;stroke-linejoin:round;stroke-opacity:1;stroke-miterlimit:4;stroke-dasharray:none" />
        <path
           inkscape:original-d="m 194.46875,32.038689 c 2.01614,2.015609 4.03201,4.031483 6.04762,6.047621 2.0156,2.016136 4.66197,1.007671 6.99256,1.511903 2.33059,0.504233 -3.52752,2.141601 -5.29167,3.212799 -1.76415,1.071197 0.50423,3.653504 0.75595,5.480653 0.25172,1.827151 2.77209,2.897555 4.15774,4.346728 1.38565,1.449173 -3.02355,1.259655 -4.53571,1.889879 -1.51217,0.630227 -5.66938,0.377711 -8.50447,0.566965 -2.83509,0.189254 1.63816,-3.150065 2.45685,-4.724701"
           inkscape:path-effect="#path-effect863"
           inkscape:connector-curvature="0"
           id="path1229"
           d="m 194.46875,32.038689 c -0.15231,1.619935 0.45132,3.295266 1.60183,4.445785 1.15052,1.15052 2.82585,1.754149 4.44579,1.601836 1.39664,-0.131318 2.71517,-0.787638 4.1174,-0.827539 0.70112,-0.01995 1.42635,0.127035 1.99653,0.535516 0.28509,0.20424 0.52684,0.472041 0.68558,0.784757 0.15875,0.312715 0.23245,0.670689 0.19305,1.019169 -0.061,0.539711 -0.38911,1.024555 -0.8132,1.363908 -0.42409,0.339353 -0.93836,0.547513 -1.45915,0.70175 -0.52079,0.154237 -1.05535,0.259113 -1.57466,0.418287 -0.5193,0.159173 -1.03041,0.377563 -1.44466,0.728854 -0.40529,0.343687 -0.70433,0.807475 -0.8668,1.313419 -0.16248,0.505945 -0.18989,1.052409 -0.0961,1.575465 0.18751,1.046113 0.85586,1.971518 1.71888,2.591769 0.8834,0.634902 1.95209,0.970363 2.84472,1.592223 0.44632,0.310931 0.84979,0.698814 1.10804,1.177543 0.25826,0.478728 0.36027,1.055655 0.20498,1.576962 -0.12452,0.417993 -0.40702,0.779031 -0.75579,1.040917 -0.34876,0.261885 -0.76125,0.429588 -1.18448,0.534932 -0.84646,0.210687 -1.7336,0.179404 -2.59544,0.31403 -1.47755,0.230806 -2.83604,0.940138 -4.28537,1.308749 -0.72466,0.184306 -1.48037,0.282702 -2.22193,0.18681 -0.74156,-0.09589 -1.47055,-0.397765 -1.99717,-0.928594 -0.41381,-0.417115 -0.69087,-0.967749 -0.77922,-1.548622 -0.0884,-0.580874 0.0125,-1.188985 0.28352,-1.710273 0.27107,-0.521289 0.711,-0.95306 1.23727,-1.214329 0.52627,-0.261268 1.13616,-0.350685 1.71528,-0.251477"
           style="fill:none;stroke:url(#linearGradient1191);stroke-width:1;stroke-linecap:butt;stroke-linejoin:round;stroke-opacity:1;stroke-miterlimit:4;stroke-dasharray:none" />
      </g>
      <path
         style="fill:none;stroke:url(#linearGradient1193);stroke-width:1.0189516;stroke-linecap:butt;stroke-linejoin:round;stroke-miterlimit:4;stroke-dasharray:none;stroke-opacity:1"
         d="M 8.315476,1.989583 C 6.6344196,1.7687763 4.8678574,2.3128761 3.6023399,3.4412252 2.3368224,4.5695743 1.5944986,6.2624245 1.6218418,7.9576999 c 0.027343,1.6952754 0.8238746,3.3633051 2.1251228,4.4502551 1.3012481,1.08695 3.0844384,1.573795 4.7574995,1.29889 1.8553559,-0.304859 3.4409599,-1.45941 4.9706179,-2.552767 0.76483,-0.546679 1.537611,-1.08808 2.372156,-1.5209256 0.834545,-0.4328454 1.737202,-0.7563934 2.673595,-0.8399979 0.314161,-0.028049 0.630865,-0.028986 0.944941,0 0.859012,0.079278 1.69594,0.3865666 2.402162,0.8819827 0.706221,0.4954158 1.28004,1.1777708 1.646981,1.9585008 0.366941,0.780731 0.526123,1.657963 0.456887,2.517843 -0.06924,0.859879 -0.366727,1.70034 -0.853858,2.412302 -0.487132,0.711961 -1.162736,1.293713 -1.939126,1.66975 -0.77639,0.376037 -1.651703,0.545457 -2.512333,0.486271 -0.860629,-0.05919 -1.704509,-0.346836 -2.422113,-0.825616 -0.717604,-0.478781 -1.307209,-1.147542 -1.692291,-1.919486"
         id="path1233"
         inkscape:connector-curvature="0"
         inkscape:path-effect="#path-effect1235"
         inkscape:original-d="m 8.315476,1.989583 c 0.063261,3.9054894 0.1262568,7.8112431 0.1889881,11.717262 0.062731,3.906018 6.6778439,-3.276058 10.0163689,-4.9136905 3.338525,-1.6376325 0.630225,-2.646e-4 0.944941,0 0.314715,2.645e-4 -3.27553,4.7874335 -4.913691,7.1815475"
         transform="matrix(-0.98946173,0,0,-0.97340571,208.48457,295.28497)" />
      <path
         style="fill:none;stroke:url(#linearGradient1199);stroke-width:1.0189516;stroke-linecap:butt;stroke-linejoin:round;stroke-miterlimit:4;stroke-dasharray:none;stroke-opacity:1"
         d="m 26.458333,7.6592257 c 0.05522,1.4483002 0.690666,2.8663713 1.734852,3.8715073 1.044187,1.005135 2.485438,1.586097 3.934791,1.586097 1.449352,0 2.890603,-0.580962 3.93479,-1.586097 1.044186,-1.005136 1.679635,-2.4232071 1.734852,-3.8715073 0.01334,-0.3498634 -0.0057,-0.7002999 0.0053,-1.0502445 0.011,-0.3499446 0.05331,-0.7036968 0.18371,-1.0286246 0.142317,-0.3546217 0.387011,-0.664191 0.684533,-0.9039642 0.297522,-0.2397733 0.6467,-0.4113371 1.011769,-0.5241886 0.730137,-0.2257028 1.51053,-0.2181361 2.273366,-0.1720544 0.762836,0.046082 1.529338,0.1285462 2.289052,0.045616 0.759713,-0.08293 1.528163,-0.3503196 2.056756,-0.9022544 0.303769,-0.3171831 0.513844,-0.7115528 0.791298,-1.0519936 0.138727,-0.1702204 0.295711,-0.3279425 0.480351,-0.446804 0.184641,-0.1188615 0.398686,-0.197644 0.618232,-0.2020952 0.207154,-0.0042 0.413779,0.058502 0.589098,0.1689265 0.17532,0.1104246 0.319616,0.2674062 0.423663,0.4465844 0.208093,0.3583566 0.251699,0.7943502 0.193889,1.2046916 -0.11562,0.8206828 -0.603348,1.5399665 -0.828674,2.3375354 -0.270045,0.955855 -0.141004,2.0159485 0.341274,2.884275 0.482278,0.8683266 1.310069,1.5362214 2.257599,1.8341634 0.94753,0.297942 2.004505,0.225216 2.9068,-0.190052 0.902294,-0.4152673 1.642812,-1.1673122 2.053851,-2.071541 0.362873,-0.7982701 0.469525,-1.6842982 0.64575,-2.5432842 0.176225,-0.8589859 0.446266,-1.7393904 1.055143,-2.3704063 0.496092,-0.5141296 1.19987,-0.8218445 1.914159,-0.8369322 0.714289,-0.015088 1.430434,0.2626345 1.947793,0.7553573 0.517359,0.4927228 0.829664,1.1944768 0.849417,1.9086518 0.01975,0.714175 -0.253286,1.4321187 -0.742619,1.9526849"
         id="path1245"
         inkscape:connector-curvature="0"
         inkscape:path-effect="#path-effect1247"
         inkscape:original-d="m 26.458333,7.6592257 c 3.780025,-2.646e-4 7.559789,-2.646e-4 11.339285,0 3.779499,2.646e-4 0.126256,-1.3861772 0.188989,-2.0788691 0.06273,-0.6926915 5.543915,-1.6381613 8.315476,-2.4568451 2.77156,-0.8186838 1.260184,-1.1341931 1.889881,-1.7008928 0.629696,-0.56669967 0.252249,2.7715607 0.377976,4.1577379 0.125728,1.3861775 5.039948,1.6376325 7.559524,2.4568454 2.519577,0.819213 1.134192,-3.2760583 1.700893,-4.9136905 0.5667,-1.6376322 2.646098,2.5195768 3.96875,3.7797618"
         transform="matrix(-0.98946173,0,0,-0.97340571,208.48457,295.28497)" />
      <path
         style="fill:none;stroke:url(#linearGradient1201);stroke-width:1.0189516;stroke-linecap:butt;stroke-linejoin:round;stroke-miterlimit:4;stroke-dasharray:none;stroke-opacity:1"
         d="m 70.303572,4.8244045 c 1.533911,0.6260744 2.73828,2.0066721 3.150382,3.6113603 0.412101,1.6046882 0.022,3.3947642 -1.020433,4.6824722 -1.042431,1.287708 -2.712045,2.041989 -4.36737,1.973046 -1.655324,-0.06894 -3.256434,-0.959448 -4.188176,-2.329379 -0.285831,-0.420255 -0.511638,-0.881357 -0.826949,-1.27997 -0.157655,-0.199307 -0.338053,-0.382643 -0.548193,-0.52554 -0.21014,-0.142898 -0.451249,-0.24448 -0.703726,-0.273359 -0.356379,-0.04076 -0.722464,0.06733 -1.017511,0.271327 -0.295048,0.203997 -0.521017,0.499303 -0.669352,0.825898 -0.29667,0.65319 -0.285246,1.402896 -0.203019,2.115573 0.409289,3.547398 2.54954,6.876515 5.6606,8.629471 1.55553,0.876478 3.329597,1.365201 5.114824,1.394411 1.785226,0.02921 3.577849,-0.402649 5.147049,-1.254412 1.5692,-0.851762 2.910417,-2.122764 3.832881,-3.651471 0.922465,-1.528707 1.422189,-3.311787 1.414106,-5.097235 C 81.070603,12.13115 80.552942,10.348905 79.591113,8.8446532 78.629285,7.3404014 77.225062,6.1204499 75.595238,5.3913687 74.988087,5.1197674 74.340136,4.9085257 73.82137,4.492255 73.561987,4.2841196 73.338731,4.0242823 73.206063,3.7193245 73.073396,3.4143666 73.036455,3.0620931 73.138392,2.7455354 c 0.10189,-0.3164117 0.338429,-0.5817414 0.628315,-0.7444187 0.289887,-0.1626773 0.629598,-0.226519 0.961567,-0.2093539 0.663938,0.03433 1.27207,0.3767475 1.811902,0.7647845 1.562103,1.1228557 2.761084,2.6738116 4.213492,3.9353515 0.726204,0.6307699 1.523451,1.1928744 2.412408,1.5602953 0.888957,0.3674208 1.876718,0.5327956 2.823506,0.362984 1.042062,-0.1868996 1.976856,-0.7646792 2.785314,-1.4482144 0.808459,-0.6835352 1.514431,-1.4788943 2.288537,-2.2011033 0.774106,-0.722209 1.637482,-1.3824786 2.641067,-1.7195885 0.501793,-0.168555 1.034716,-0.2530735 1.562853,-0.217321 0.528136,0.035752 1.051233,0.1942829 1.494552,0.4835488 0.407658,0.2659975 0.740113,0.6359754 1.007895,1.0424638 0.267782,0.4064884 0.473843,0.8502296 0.663545,1.2985076 0.379404,0.8965561 0.710556,1.8407106 1.352369,2.5727188 0.633016,0.7219765 1.551296,1.186759 2.507926,1.269374 0.95662,0.082615 1.94099,-0.2178538 2.68841,-0.8206144 0.74743,-0.6027607 1.24962,-1.5011281 1.37154,-2.4535437 0.12192,-0.9524156 -0.13777,-1.9483161 -0.70925,-2.7199179"
         id="path1249"
         inkscape:connector-curvature="0"
         inkscape:path-effect="#path-effect1251"
         inkscape:original-d="m 70.303572,4.8244045 c -2.141601,2.6455687 -4.283467,5.2914025 -6.425597,7.9374995 -2.14213,2.646098 -1.385647,-1.386177 -2.078868,-2.078869 -0.693222,-0.6926915 -1.259658,2.141601 -1.889882,3.212798 C 59.279001,14.96703 70.366831,8.2259254 75.595238,5.3913687 80.823643,2.5568119 73.957605,3.6272152 73.138392,2.7455354 72.319178,1.8638555 75.406514,2.6192787 76.540176,2.5565473 c 1.133666,-0.062731 6.29987,3.9054894 9.449406,5.8586308 3.149537,1.9531419 7.181813,-3.4020503 10.772323,-5.1026784 3.590505,-1.7006283 2.016135,3.2755289 3.023809,4.9136902 1.007666,1.6381616 3.906016,-3.1500658 5.858626,-4.724702"
         transform="matrix(-0.98946173,0,0,-0.97340571,208.48457,295.28497)" />
      <path
         style="fill:none;stroke:url(#linearGradient1203);stroke-width:1.0189516;stroke-linecap:butt;stroke-linejoin:round;stroke-miterlimit:4;stroke-dasharray:none;stroke-opacity:1"
         d="m 111.50297,3.6904758 c -1.00794,1.6340522 -1.18437,3.7529516 -0.46056,5.5312007 0.7238,1.7782495 2.32985,3.1716165 4.19244,3.6372645 1.86259,0.465647 3.9354,-0.008 5.41087,-1.236436 1.47548,-1.228428 2.31693,-3.1810725 2.19654,-5.0972078 -0.0397,-0.63258 -0.17591,-1.2809522 0,-1.8898809 0.11256,-0.3896294 0.3512,-0.7389785 0.66144,-1.0001918 0.31024,-0.2612132 0.68998,-0.4354719 1.08682,-0.5191194 0.79369,-0.167295 1.63215,0.02801 2.35034,0.4049904 1.4364,0.7539617 2.40231,2.1562872 3.64991,3.1931899 1.18435,0.9843337 2.64033,1.6384178 4.1628,1.8700985 1.52247,0.2316807 3.10711,0.040299 4.53065,-0.5471819"
         id="path1253"
         inkscape:connector-curvature="0"
         inkscape:path-effect="#path-effect1255"
         inkscape:original-d="m 111.50297,3.6904758 c 3.78003,0.9446759 7.55979,1.8896163 11.33929,2.8348214 3.7795,0.9452052 2.6e-4,-1.2601852 0,-1.8898809 -2.7e-4,-0.6296959 5.16594,1.3856481 7.74851,2.0788691 2.58257,0.6932208 5.7959,0.8816798 8.69345,1.3229166"
         transform="matrix(-0.98946173,0,0,-0.97340571,208.48457,295.28497)" />
      <path
         style="fill:none;stroke:url(#linearGradient1205);stroke-width:1.0189516;stroke-linecap:butt;stroke-linejoin:round;stroke-miterlimit:4;stroke-dasharray:none;stroke-opacity:1"
         d="m 145.52083,10.305059 c 0.89485,0.270711 1.90981,0.110282 2.67754,-0.4232263 0.76773,-0.5335084 1.27201,-1.4288177 1.33033,-2.3619007 0.0583,-0.9330829 -0.33055,-1.8842149 -1.02588,-2.5091655 -0.69533,-0.6249506 -1.68241,-0.9105089 -2.60401,-0.7533265 -0.54491,0.092937 -1.05406,0.3286219 -1.54846,0.5758829 -0.49439,0.2472609 -0.98582,0.5102271 -1.51666,0.6644056 -0.53084,0.1541786 -1.11389,0.1925406 -1.62839,-0.00958 -0.25725,-0.101061 -0.49283,-0.2619419 -0.66865,-0.4751928 -0.17583,-0.2132509 -0.28993,-0.4796833 -0.30749,-0.7555143 -0.0191,-0.3000086 0.0764,-0.6019228 0.24383,-0.8516114 0.16741,-0.2496886 0.40378,-0.4488628 0.66634,-0.5952467 0.52514,-0.2927678 1.13829,-0.3750488 1.73567,-0.4430227 3.8894,-0.4425644 7.81091,-0.503618 11.71726,-0.7559524 1.00266,-0.064767 2.04968,-0.1351068 2.97324,0.2605622 0.46178,0.1978345 0.88059,0.5155175 1.14769,0.9410026 0.2671,0.4254852 0.37047,0.963177 0.2258,1.4442684 -0.12642,0.4204083 -0.42896,0.7706676 -0.78275,1.030594 -0.35378,0.2599264 -0.75923,0.4391172 -1.16276,0.6120047 -0.40352,0.1728876 -0.81178,0.3431526 -1.17605,0.5881684 -0.36427,0.2450157 -0.68633,0.5735586 -0.84719,0.9820307 -0.13073,0.3319737 -0.14808,0.7053355 -0.0617,1.0515058 0.0864,0.3461702 0.27447,0.66448 0.52655,0.9169807 0.25207,0.2525007 0.56678,0.4397835 0.90477,0.5540587 0.33799,0.114275 0.6988,0.156425 1.05506,0.137022 0.71252,-0.03881 1.39545,-0.3209484 1.99388,-0.7096201 0.59844,-0.3886717 1.12103,-0.8818756 1.62905,-1.3829829 2.2728,-2.24188 4.43195,-4.7747007 7.3832,-5.9919739 1.47563,-0.6086366 3.13434,-0.8513896 4.68583,-0.4761447 0.77574,0.1876224 1.51701,0.5286096 2.14738,1.0181112 0.63037,0.4895016 1.14774,1.1289022 1.4696,1.8592336 0.37148,0.8429134 0.47522,1.774526 0.67373,2.6740209 0.0993,0.4497475 0.22381,0.8962428 0.41584,1.314871 0.19203,0.4186281 0.45405,0.8100968 0.80031,1.1137865 0.39001,0.3420557 0.87939,0.5639294 1.38938,0.6588934 0.50999,0.09496 1.03973,0.06549 1.54341,-0.05867 1.00735,-0.2483076 1.89055,-0.8628348 2.64051,-1.5797637 0.74996,-0.716929 1.38704,-1.5416304 2.07673,-2.3167154 0.68969,-0.775085 1.44796,-1.5127099 2.36634,-1.9954149 0.9191,-0.4830821 1.98048,-0.6913078 3.01397,-0.5912924 1.03349,0.1000155 2.03525,0.5078998 2.84466,1.1582569"
         id="path1257"
         inkscape:connector-curvature="0"
         inkscape:path-effect="#path-effect1259"
         inkscape:original-d="m 145.52083,10.305059 c 0.12626,-2.0161374 0.25225,-4.0320105 0.37798,-6.047619 0.12572,-2.0156083 -3.7795,-2.646e-4 -5.66965,0 -1.89014,2.646e-4 1.76416,-1.260185 2.64584,-1.8898808 0.88168,-0.6296957 7.81177,-0.5042328 11.71726,-0.7559524 3.90549,-0.2517195 2.89808,1.7636243 4.34673,2.6458332 1.44864,0.8822092 -2.64557,2.1416007 -3.96875,3.2127978 -1.32318,1.0711971 4.03201,0.3777115 6.04762,0.5669642 2.0156,0.1892525 10.4576,-2.3941137 15.68601,-3.5907738 5.2284,-1.1966599 1.26018,3.4015211 1.88988,5.1026784 0.62969,1.7011574 6.67784,-3.5280422 10.01637,-5.2916666 3.33852,-1.7636242 3.90602,0.3777117 5.85863,0.5669645"
         transform="matrix(-0.98946173,0,0,-0.97340571,208.48457,295.28497)" />
      <path
         style="fill:none;stroke:url(#linearGradient1207);stroke-width:1.0189516;stroke-linecap:butt;stroke-linejoin:round;stroke-miterlimit:4;stroke-dasharray:none;stroke-opacity:1"
         d="m 198.4375,5.7693448 c 0.23569,-1.1657551 0.99025,-2.2165692 2.01955,-2.8124547 1.0293,-0.5958855 2.31631,-0.7269851 3.44462,-0.350882 1.12831,0.376103 2.07925,1.2531872 2.54516,2.3474748 0.46591,1.0942876 0.43907,2.3876766 -0.0718,3.4616952 -0.34521,0.7257073 -0.89325,1.3404758 -1.51192,1.8533749 -0.61867,0.5129 -1.30949,0.93068 -2.00189,1.338611 -0.6924,0.407931 -1.39137,0.809445 -2.03238,1.294146 -0.641,0.4847 -1.22665,1.058539 -1.63536,1.750475 -0.22736,0.384913 -0.39845,0.805464 -0.47955,1.245093 -0.0811,0.439629 -0.0705,0.898759 0.0549,1.327853 0.12541,0.429095 0.36817,0.826773 0.70893,1.116136 0.34077,0.289363 0.78061,0.466013 1.22765,0.468656 0.52096,0.0031 1.02185,-0.225163 1.43636,-0.540755 0.4145,-0.315591 0.75512,-0.716054 1.09548,-1.110473 0.34036,-0.394419 0.68812,-0.789938 1.11262,-1.091955 0.4245,-0.302017 0.93855,-0.506377 1.45822,-0.469614 0.49411,0.03496 0.9598,0.289616 1.29439,0.654882 0.33459,0.365265 0.54379,0.834327 0.64346,1.319544 0.19935,0.970435 -0.024,1.971728 -0.23695,2.939264 -1.05794,4.806284 -1.87823,9.664873 -2.45685,14.552082"
         id="path1261"
         inkscape:connector-curvature="0"
         inkscape:path-effect="#path-effect1263"
         inkscape:original-d="m 198.4375,5.7693448 c 2.6461,0.88168 5.29193,1.7636244 7.9375,2.6458333 2.64557,0.8822092 -4.78744,4.1574739 -7.18155,6.2366069 -2.39411,2.079134 1.0082,2.771561 1.5119,4.157738 0.50371,1.386178 3.40205,-2.142129 5.10268,-3.212797 1.70063,-1.070668 1.1342,3.275529 1.7009,4.91369 0.5667,1.638161 -1.63764,9.701124 -2.45685,14.552082"
         transform="matrix(-0.98946173,0,0,-0.97340571,208.48457,295.28497)" />
      <path
         transform="matrix(-0.98946173,0,0,-0.97340571,208.48457,295.28497)"
         inkscape:original-d="m 70.303572,4.8244045 c -2.141601,2.6455687 -4.283467,5.2914025 -6.425597,7.9374995 -2.14213,2.646098 -1.385647,-1.386177 -2.078868,-2.078869 -0.693222,-0.6926915 -1.259658,2.141601 -1.889882,3.212798 C 59.279001,14.96703 70.366831,8.2259254 75.595238,5.3913687 80.823643,2.5568119 73.957605,3.6272152 73.138392,2.7455354 72.319178,1.8638555 75.406514,2.6192787 76.540176,2.5565473 c 1.133666,-0.062731 6.29987,3.9054894 9.449406,5.8586308 3.149537,1.9531419 7.181813,-3.4020503 10.772323,-5.1026784 3.590505,-1.7006283 2.016135,3.2755289 3.023809,4.9136902 1.007666,1.6381616 3.906016,-3.1500658 5.858626,-4.724702"
         inkscape:path-effect="#path-effect1271"
         inkscape:connector-curvature="0"
         id="path1269"
         d="m 70.303572,4.8244045 c 1.533911,0.6260744 2.73828,2.0066721 3.150382,3.6113603 0.412101,1.6046882 0.022,3.3947642 -1.020433,4.6824722 -1.042431,1.287708 -2.712045,2.041989 -4.36737,1.973046 -1.655324,-0.06894 -3.256434,-0.959448 -4.188176,-2.329379 -0.285831,-0.420255 -0.511638,-0.881357 -0.826949,-1.27997 -0.157655,-0.199307 -0.338053,-0.382643 -0.548193,-0.52554 -0.21014,-0.142898 -0.451249,-0.24448 -0.703726,-0.273359 -0.356379,-0.04076 -0.722464,0.06733 -1.017511,0.271327 -0.295048,0.203997 -0.521017,0.499303 -0.669352,0.825898 -0.29667,0.65319 -0.285246,1.402896 -0.203019,2.115573 0.409289,3.547398 2.54954,6.876515 5.6606,8.629471 1.55553,0.876478 3.329597,1.365201 5.114824,1.394411 1.785226,0.02921 3.577849,-0.402649 5.147049,-1.254412 1.5692,-0.851762 2.910417,-2.122764 3.832881,-3.651471 0.922465,-1.528707 1.422189,-3.311787 1.414106,-5.097235 C 81.070603,12.13115 80.552942,10.348905 79.591113,8.8446532 78.629285,7.3404014 77.225062,6.1204499 75.595238,5.3913687 74.988087,5.1197674 74.340136,4.9085257 73.82137,4.492255 73.561987,4.2841196 73.338731,4.0242823 73.206063,3.7193245 73.073396,3.4143666 73.036455,3.0620931 73.138392,2.7455354 c 0.10189,-0.3164117 0.338429,-0.5817414 0.628315,-0.7444187 0.289887,-0.1626773 0.629598,-0.226519 0.961567,-0.2093539 0.663938,0.03433 1.27207,0.3767475 1.811902,0.7647845 1.562103,1.1228557 2.761084,2.6738116 4.213492,3.9353515 0.726204,0.6307699 1.523451,1.1928744 2.412408,1.5602953 0.888957,0.3674208 1.876718,0.5327956 2.823506,0.362984 1.042062,-0.1868996 1.976856,-0.7646792 2.785314,-1.4482144 0.808459,-0.6835352 1.514431,-1.4788943 2.288537,-2.2011033 0.774106,-0.722209 1.637482,-1.3824786 2.641067,-1.7195885 0.501793,-0.168555 1.034716,-0.2530735 1.562853,-0.217321 0.528136,0.035752 1.051233,0.1942829 1.494552,0.4835488 0.407658,0.2659975 0.740113,0.6359754 1.007895,1.0424638 0.267782,0.4064884 0.473843,0.8502296 0.663545,1.2985076 0.379404,0.8965561 0.710556,1.8407106 1.352369,2.5727188 0.633016,0.7219765 1.551296,1.186759 2.507926,1.269374 0.95662,0.082615 1.94099,-0.2178538 2.68841,-0.8206144 0.74743,-0.6027607 1.24962,-1.5011281 1.37154,-2.4535437 0.12192,-0.9524156 -0.13777,-1.9483161 -0.70925,-2.7199179"
         style="fill:none;stroke:url(#linearGradient1211);stroke-width:1.0189516;stroke-linecap:butt;stroke-linejoin:round;stroke-miterlimit:4;stroke-dasharray:none;stroke-opacity:1" />
    </g>
  </g>
</svg>
