<?xml version="1.0" encoding="UTF-8" standalone="no"?>
<!-- Created with Inkscape (http://www.inkscape.org/) -->

<svg
   xmlns:dc="http://purl.org/dc/elements/1.1/"
   xmlns:cc="http://creativecommons.org/ns#"
   xmlns:rdf="http://www.w3.org/1999/02/22-rdf-syntax-ns#"
   xmlns:svg="http://www.w3.org/2000/svg"
   xmlns="http://www.w3.org/2000/svg"
   xmlns:sodipodi="http://sodipodi.sourceforge.net/DTD/sodipodi-0.dtd"
   xmlns:inkscape="http://www.inkscape.org/namespaces/inkscape"
   width="210mm"
   height="297mm"
   viewBox="0 0 210 297"
   version="1.1"
   id="svg4535"
   sodipodi:docname="top-svg.svg"
   inkscape:version="0.92.4 (5da689c313, 2019-01-14)">
 
 
    <path
       style="fill:rgba(27, 139, 249, 0.09);stroke:none;stroke-width:0.26458332px;stroke-linecap:butt;stroke-linejoin:miter;stroke-opacity:1;fill-opacity:1"
       d="m 12.701193,13.208157 c 15.72312,2.654722 47.577707,7.228714 73.224709,7.392036 25.646998,0.163322 45.086598,-4.083986 59.421008,-4.247311 14.3344,-0.163326 23.5642,3.757298 33.97822,2.695411 10.41401,-1.061888 22.01251,-7.106176 27.44506,-12.3269369 5.43256,-5.2207606 4.69522,-9.6447604 -9.47516,-11.4416033 C 183.12465,-6.51709 155.516,-5.7002659 123.21199,-5.9861384 90.907981,-6.272011 53.908018,-7.6605306 32.018208,-7.0888372 10.128397,-6.5171438 3.3491345,-3.9851301 0.1635125,-0.9630014 c -3.185622,3.0221287 -2.7772491,6.5341358 -2.7771617,8.6577571 8.74e-5,2.1236214 -0.4082781,2.8586793 15.3148422,5.5134013 z"
       id="path5879"
       inkscape:connector-curvature="0"
       inkscape:path-effect="#path-effect5881"
       inkscape:original-d="M -3.4304941,11.288855 C 28.424356,15.862582 60.278943,20.436574 92.133268,25.010831 111.57286,20.763318 131.01246,16.51601 150.45166,12.268996 c 9.22979,3.920238 18.45959,7.840865 27.68899,11.761694 11.59844,-6.044384 23.19694,-12.088672 34.79501,-18.1326111 -0.65314,-4.4107792 -1.46994,-8.8215347 -2.20532,-13.2319055 -27.6057,0.8164801 -55.21435,1.6333041 -82.82192,2.4503531 -37.000429,-1.3888117 -74.000392,-2.7773312 -111.000985,-4.1656 -6.779092,2.5317842 -13.5583548,5.0637979 -20.3379291,7.5960938 0.408676,3.5120731 0.817049,7.0240802 1.2251765,10.5365173 -0.4081543,0.7348894 -0.8165196,1.4699474 -1.2251765,2.2053174 z" />
  
</svg>
