<?xml version="1.0" encoding="iso-8859-1"?>
<!-- Generator: Adobe Illustrator 19.0.0, SVG Export Plug-In . SVG Version: 6.00 Build 0)  -->
<svg version="1.1" id="Capa_1" xmlns="http://www.w3.org/2000/svg" xmlns:xlink="http://www.w3.org/1999/xlink" x="0px" y="0px"
	 viewBox="0 0 512 512" style="enable-background:new 0 0 512 512;" xml:space="preserve">
<circle style="fill:#FFAF10;" cx="255.342" cy="267" r="245"/>
<path style="fill:#FE3745;" d="M422.391,171.29v15.844c0,1.654-1.346,3-3,3h-29.077c-1.654,0-3-1.346-3-3V171.29
	c0-3.583-2.64-7.299-6.022-8.491l-7.346-3.011c-1.092-0.519-2.371-0.792-3.705-0.792c-2.509,0-4.962,0.948-6.561,2.535
	l-11.321,11.237c-0.567,0.563-1.327,0.872-2.141,0.872c-0.813,0-1.573-0.31-2.14-0.872l-20.536-20.378
	c-0.563-0.559-0.872-1.305-0.872-2.103c-0.001-0.797,0.309-1.544,0.872-2.102l11.325-11.237c2.547-2.528,3.309-7.015,1.749-10.247
	l-3.014-7.239c-1.206-3.373-4.929-6.005-8.508-6.005h-16.046c-0.796,0-1.548-0.313-2.117-0.883
	c-0.569-0.569-0.883-1.321-0.883-2.117v-28.78c0-1.654,1.346-3,3-3h10.146c-21.187-7.634-44.029-11.804-67.847-11.804
	C144.82,66.873,55.22,156.473,55.22,267s89.6,200.127,200.127,200.127S455.474,377.527,455.474,267
	c0-37.825-10.498-73.197-28.733-103.368C424.201,165.273,422.391,168.325,422.391,171.29z"/>
<path style="fill:#B7092B;" d="M72.227,267c0-107.677,85.042-195.478,191.624-199.935c-2.821-0.118-5.653-0.192-8.503-0.192
	c-110.527,0-200.127,89.6-200.127,200.127s89.6,200.127,200.127,200.127c2.85,0,5.683-0.074,8.503-0.192
	C157.269,462.478,72.227,374.677,72.227,267z"/>
<circle style="fill:#FFFFFF;" cx="255.342" cy="267" r="160.14"/>
<g>
	<path style="fill:#D9EAFC;" d="M119.209,267c0-84.405,65.301-153.555,148.138-159.691c-3.962-0.294-7.963-0.447-12-0.447
		c-88.442,0-160.138,71.696-160.138,160.138s71.696,160.138,160.138,160.138c4.037,0,8.038-0.153,12-0.447
		C184.51,420.555,119.209,351.405,119.209,267z"/>
	<circle style="fill:#D9EAFC;" cx="255.342" cy="267" r="106.64"/>
</g>
<path style="fill:#AEC1ED;" d="M174.213,267c0-54.582,41.004-99.578,93.889-105.882c-4.183-0.499-8.438-0.762-12.755-0.762
	C196.448,160.355,148.702,208.101,148.702,267c0,58.898,47.745,106.645,106.645,106.645c4.317,0,8.572-0.264,12.755-0.762
	C215.217,366.578,174.213,321.581,174.213,267z"/>
<path style="fill:#E26693;" d="M255.347,381.145c-62.94,0-114.145-51.205-114.145-114.145s51.205-114.145,114.145-114.145
	S369.491,204.061,369.491,267S318.286,381.145,255.347,381.145z M255.347,167.855c-54.669,0-99.145,44.476-99.145,99.145
	s44.476,99.145,99.145,99.145s99.144-44.476,99.144-99.145S310.015,167.855,255.347,167.855z"/>
<circle style="fill:#FFFFFF;" cx="255.342" cy="267" r="21.443"/>
<path style="fill:#52BBEF;" d="M340.656,259.5h-57.358c-2.67-9.941-10.511-17.782-20.452-20.452V131.987c0-4.142-3.358-7.5-7.5-7.5
	c-4.142,0-7.5,3.358-7.5,7.5v107.061c-12.335,3.313-21.443,14.586-21.443,27.952c0,15.96,12.984,28.943,28.943,28.943
	c13.366,0,24.639-9.109,27.952-21.443h57.358c4.142,0,7.5-3.358,7.5-7.5S344.799,259.5,340.656,259.5z M255.347,280.943
	c-7.689,0-13.943-6.255-13.943-13.943s6.255-13.943,13.943-13.943c7.688,0,13.943,6.255,13.943,13.943
	S263.034,280.943,255.347,280.943z"/>
<path style="fill:#3EB7FF;" d="M167.383,362.464c-1.919,0-3.839-0.732-5.303-2.197c-2.929-2.929-2.929-7.678,0-10.606
	l114.417-114.417c2.929-2.929,7.678-2.929,10.606,0c2.929,2.929,2.929,7.678,0,10.606L172.686,360.267
	C171.222,361.731,169.303,362.464,167.383,362.464z"/>
<path style="fill:#E26693;" d="M390.314,190.134c-1.654,0-3-1.346-3-3V171.29c0-3.583-2.64-7.299-6.022-8.491l-7.346-3.011
	c-1.092-0.519-2.371-0.792-3.705-0.792c-2.012,0-3.979,0.617-5.508,1.677c7.026,7.226,13.354,15.134,18.851,23.629l-2.312,1.335
	c-3.587,2.071-4.816,6.658-2.745,10.246c1.389,2.406,3.91,3.751,6.502,3.751c1.272,0,2.563-0.324,3.744-1.006l2.334-1.348
	c9.703,18.816,15.606,39.896,16.691,62.221h-2.716c-4.142,0-7.5,3.358-7.5,7.5s3.358,7.5,7.5,7.5h2.716
	c-1.085,22.325-6.989,43.405-16.692,62.222l-2.334-1.348c-3.585-2.072-8.174-0.844-10.245,2.744
	c-2.072,3.587-0.843,8.174,2.744,10.245l2.312,1.335c-11.782,18.207-27.332,33.757-45.539,45.539l-1.335-2.311
	c-2.071-3.587-6.659-4.816-10.245-2.745c-3.587,2.071-4.816,6.658-2.745,10.245l1.348,2.335
	c-18.816,9.702-39.896,15.606-62.221,16.691v-2.716c0-4.142-3.358-7.5-7.5-7.5c-4.142,0-7.5,3.358-7.5,7.5v2.716
	c-22.325-1.085-43.405-6.989-62.222-16.692l1.348-2.335c2.071-3.587,0.842-8.174-2.745-10.245
	c-3.587-2.072-8.174-0.843-10.245,2.745l-1.335,2.311c-18.207-11.782-33.756-27.332-45.538-45.538l2.311-1.335
	c3.587-2.071,4.816-6.658,2.745-10.246c-2.071-3.587-6.658-4.816-10.246-2.745l-2.334,1.348
	c-9.703-18.816-15.606-39.896-16.691-62.221h2.716c4.142,0,7.5-3.358,7.5-7.5s-3.358-7.5-7.5-7.5h-2.716
	c1.085-22.325,6.989-43.405,16.692-62.221l2.334,1.348c1.182,0.682,2.471,1.007,3.744,1.007c2.591,0,5.112-1.345,6.501-3.751
	c2.072-3.587,0.843-8.174-2.744-10.246l-2.312-1.335c11.782-18.207,27.332-33.757,45.539-45.539l1.334,2.312
	c1.389,2.406,3.91,3.751,6.502,3.751c1.272,0,2.562-0.324,3.743-1.006c3.587-2.071,4.816-6.658,2.745-10.245l-1.348-2.335
	c20.912-10.783,44.617-16.878,69.721-16.878s48.809,6.094,69.72,16.877l-1.348,2.334c-2.071,3.587-0.842,8.174,2.745,10.246
	c1.182,0.682,2.471,1.006,3.744,1.006c0.259,0,0.516-0.023,0.772-0.05l7.887-7.827c2.547-2.528,3.309-7.015,1.749-10.247
	l-2.192-5.265c-5.114-2.931-10.401-5.591-15.833-7.98c-4.448,0-9.542,0-9.542,0c-0.796,0-1.548-0.313-2.117-0.883
	c-0.569-0.569-0.883-1.321-0.883-2.117v-1.922c-17.152-5.938-35.555-9.173-54.701-9.173c-92.436,0-167.638,75.202-167.638,167.638
	s75.202,167.638,167.638,167.638S422.984,359.436,422.984,267c0-27.689-6.753-53.828-18.691-76.866H390.314z"/>
<path style="fill:#02AF8E;" d="M272.14,320.702h-33.587c-2.75,0-5,2.25-5,5v13.775c0,2.75,2.25,5,5,5h33.587c2.75,0,5-2.25,5-5
	v-13.775C277.14,322.952,274.89,320.702,272.14,320.702z"/>
<path style="fill:#0F9390;" d="M247.726,339.478v-13.775c0-2.75,2.25-5,5-5h-14.172c-2.75,0-5,2.25-5,5v13.775c0,2.75,2.25,5,5,5
	h14.172C249.976,344.478,247.726,342.228,247.726,339.478z"/>
<path style="fill:#445EA0;" d="M385.314,187.134c0,2.75,2.25,5,5,5h29.077c2.75,0,5-2.25,5-5V171.29c0-2.75,2.129-5.729,4.73-6.62
	l7.452-3.054c2.473-1.204,6.093-0.603,8.045,1.334l11.322,11.236c1.952,1.937,5.146,1.937,7.098,0l20.533-20.377
	c1.952-1.937,1.952-5.107,0-7.044l-11.322-11.237c-1.952-1.937-2.552-5.539-1.334-8.004l3.057-7.345
	c0.902-2.598,3.891-4.723,6.641-4.723h16.046c2.75,0,5-2.25,5-5V81.677c0-2.75-2.25-5-5-5h-16.047c-2.75,0-5.738-2.125-6.641-4.723
	l-3.056-7.345c-1.218-2.466-0.618-6.067,1.334-8.005L483.57,45.37c1.952-1.936,1.952-5.107,0-7.044l-20.533-20.377
	c-1.952-1.937-5.146-1.937-7.098,0l-11.322,11.235c-1.952,1.937-5.572,2.537-8.045,1.334l-7.451-3.054
	c-2.602-0.891-4.73-3.869-4.73-6.619V5c0-2.75-2.25-5-5-5h-29.077c-2.75,0-5,2.25-5,5v15.845c0,2.75-2.129,5.729-4.73,6.619
	l-7.448,3.054c-2.473,1.204-6.093,0.604-8.045-1.333L353.768,17.95c-1.952-1.938-5.146-1.938-7.099,0l-20.536,20.376
	c-1.952,1.938-1.952,5.107,0,7.044l11.323,11.236c1.952,1.937,2.553,5.539,1.334,8.004l-3.057,7.345
	c-0.902,2.598-3.891,4.723-6.641,4.723h-16.045c-2.75,0-5,2.25-5,5v28.779c0,2.75,2.25,5,5,5h16.045
	c2.75-0.001,5.738,2.125,6.641,4.723l3.058,7.346c1.219,2.465,0.619,6.067-1.333,8.004l-11.325,11.237
	c-1.952,1.937-1.952,5.107,0,7.044l20.536,20.377c1.952,1.937,5.147,1.937,7.098-0.001l11.321-11.236
	c1.952-1.937,5.572-2.537,8.044-1.334l7.451,3.054c2.602,0.891,4.73,3.87,4.73,6.62L385.314,187.134L385.314,187.134z"/>
<ellipse style="fill:#D9EAFC;" cx="404.852" cy="96.07" rx="46.59" ry="46.24"/>
<path style="fill:#AEC1ED;" d="M372.435,96.068c0.001-23.146,17.135-42.318,39.503-45.705c-2.31-0.35-4.677-0.532-7.086-0.532
	c-25.732,0-46.589,20.699-46.59,46.236c0,25.535,20.858,46.237,46.59,46.237c2.409,0,4.775-0.182,7.086-0.532
	C389.57,138.386,372.435,119.212,372.435,96.068z"/>
<path style="fill:#1A2B63;" d="M404.853,149.805c-29.825,0-54.09-24.107-54.09-53.737c0.001-29.63,24.266-53.736,54.09-53.736
	c29.826,0,54.09,24.106,54.09,53.736C458.943,125.699,434.677,149.805,404.853,149.805z M404.853,57.332
	c-21.553,0-39.089,17.377-39.09,38.737c0,21.359,17.536,38.737,39.09,38.737c21.554,0,39.09-17.378,39.09-38.738
	C443.943,74.709,426.406,57.332,404.853,57.332z"/>
<ellipse style="fill:#D9EAFC;" cx="404.852" cy="96.07" rx="19.695" ry="19.545"/>
<path style="fill:#AEC1ED;" d="M399.33,96.068c0-8.313,5.237-15.395,12.609-18.221c-2.202-0.844-4.585-1.325-7.086-1.325
	c-10.878,0-19.695,8.75-19.695,19.546c0,10.794,8.817,19.545,19.695,19.545c2.501,0,4.885-0.481,7.086-1.325
	C404.568,111.462,399.33,104.38,399.33,96.068z"/>
<path style="fill:#1A2B63;" d="M404.853,123.113c-14.995,0-27.195-12.132-27.195-27.045s12.2-27.046,27.195-27.046
	s27.194,12.132,27.194,27.045S419.846,123.113,404.853,123.113z M404.853,84.022c-6.724,0-12.195,5.404-12.195,12.046
	s5.471,12.045,12.195,12.045s12.194-5.404,12.194-12.046S411.577,84.022,404.853,84.022z"/>
<g>
</g>
<g>
</g>
<g>
</g>
<g>
</g>
<g>
</g>
<g>
</g>
<g>
</g>
<g>
</g>
<g>
</g>
<g>
</g>
<g>
</g>
<g>
</g>
<g>
</g>
<g>
</g>
<g>
</g>
</svg>
