<?xml version="1.0" encoding="iso-8859-1"?>
<!-- Generator: Adobe Illustrator 19.0.0, SVG Export Plug-In . SVG Version: 6.00 Build 0)  -->
<svg version="1.1" id="Capa_1" xmlns="http://www.w3.org/2000/svg" xmlns:xlink="http://www.w3.org/1999/xlink" x="0px" y="0px"
	 viewBox="0 0 512 512" style="enable-background:new 0 0 512 512;" xml:space="preserve">
<circle style="fill:#5DC1D8;" cx="256" cy="256" r="245"/>
<path style="fill:#FE3745;" d="M182.179,304.071c-4.411,0-8-3.589-8-8v-46.684H54.653c-5.5,0-10,4.5-10,10v120.582
	c5.211,8.864,10.962,17.371,17.21,25.476h67.085c5.5,0,10,4.5,10,10v34.138c0,5.5,3.169,6.805,7.042,2.9l39.607-39.938
	c3.873-3.905,11.542-7.1,17.042-7.1h101.137c5.5,0,10-4.5,10-10v-91.374L182.179,304.071L182.179,304.071z"/>
<path style="fill:#B7092B;" d="M70.168,259.387c0-5.5,4.5-10,10-10H54.653c-5.5,0-10,4.5-10,10v120.582
	c5.211,8.864,10.962,17.371,17.21,25.476h8.305V259.387z"/>
<g>
	<path style="fill:#FFD782;" d="M174.179,296.071v-10.818H88.746c-4.143,0-7.5,3.358-7.5,7.5s3.357,7.5,7.5,7.5h86.625
		C174.62,299.034,174.179,297.605,174.179,296.071z"/>
	<path style="fill:#FFD782;" d="M267.221,334.771H88.746c-4.143,0-7.5-3.358-7.5-7.5s3.357-7.5,7.5-7.5h178.475
		c4.143,0,7.5,3.358,7.5,7.5S271.363,334.771,267.221,334.771z"/>
	<path style="fill:#FFD782;" d="M267.221,369.289H88.746c-4.143,0-7.5-3.358-7.5-7.5s3.357-7.5,7.5-7.5h178.475
		c4.143,0,7.5,3.358,7.5,7.5S271.363,369.289,267.221,369.289z"/>
</g>
<path style="fill:#FF9518;" d="M512,119.018c0-5.5-4.5-10-10-10H182.179c-5.5,0-10,4.5-10,10v177.054c0,5.5,4.5,10,10,10h199.755
	c5.5,0,13.169,3.195,17.042,7.1l52.897,53.338c3.873,3.905,7.042,2.6,7.042-2.9v-47.538c0-5.5,4.5-10,10-10H502c5.5,0,10-4.5,10-10
	V119.018z"/>
<path style="fill:#EF8318;" d="M200.528,296.071V119.018c0-5.5,4.5-10,10-10h-28.35c-5.5,0-10,4.5-10,10v177.054c0,5.5,4.5,10,10,10
	h28.35C205.028,306.071,200.528,301.571,200.528,296.071z"/>
<path style="fill:#FFD00D;" d="M146.742,44.768c0-5.5-4.5-10-10-10H10c-5.5,0-10,4.5-10,10v126.741c0,5.5,4.5,10,10,10h24.657
	c5.5,0,12.264,3.889,15.031,8.642l18.651,32.038c2.768,4.753,7.295,4.753,10.063,0l18.651-32.038
	c2.768-4.753,9.531-8.642,15.031-8.642h24.657c5.5,0,10-4.5,10-10V44.768H146.742z"/>
<path style="fill:#FFAF10;" d="M17.01,171.509V44.768c0-5.5,4.5-10,10-10H10c-5.5,0-10,4.5-10,10v126.741c0,5.5,4.5,10,10,10h17.01
	C21.51,181.509,17.01,177.009,17.01,171.509z"/>
<path style="fill:#FE3745;" d="M73.236,148.011c-1.229,0-2.383-0.482-3.254-1.358L34.238,110.61
	c-4.311-4.347-6.684-10.133-6.684-16.291c0-6.156,2.373-11.943,6.684-16.288c4.314-4.354,10.053-6.749,16.156-6.749
	c6.102,0,11.838,2.396,16.156,6.749l6.816,6.872l6.82-6.872c4.313-4.354,10.049-6.749,16.152-6.749
	c6.108,0,11.842,2.396,16.158,6.749c4.314,4.35,6.689,10.136,6.689,16.288c0,6.155-2.375,11.938-6.691,16.291l-36.021,36.055
	C75.609,147.534,74.457,148.011,73.236,148.011z"/>
<path style="fill:#B7092B;" d="M48.413,104.942c-4.311-4.347-6.684-10.133-6.684-16.291c0-6.156,2.373-11.943,6.684-16.288
	c0.364-0.367,0.751-0.7,1.135-1.039c-5.784,0.212-11.196,2.557-15.31,6.707c-4.311,4.345-6.684,10.132-6.684,16.288
	c0,6.158,2.373,11.944,6.684,16.291l35.744,36.043c0.871,0.875,2.025,1.358,3.254,1.358c1.221,0,2.373-0.477,3.238-1.346
	l6.683-6.689L48.413,104.942z"/>
<g>
	<path style="fill:#FFFFFF;" d="M454.588,162.258H226.86c-4.143,0-7.5-3.358-7.5-7.5s3.357-7.5,7.5-7.5h227.727
		c4.143,0,7.5,3.358,7.5,7.5S458.73,162.258,454.588,162.258z"/>
	<path style="fill:#FFFFFF;" d="M454.588,196.776H226.86c-4.143,0-7.5-3.358-7.5-7.5s3.357-7.5,7.5-7.5h227.727
		c4.143,0,7.5,3.358,7.5,7.5S458.73,196.776,454.588,196.776z"/>
	<path style="fill:#FFFFFF;" d="M454.588,231.294H226.86c-4.143,0-7.5-3.358-7.5-7.5s3.357-7.5,7.5-7.5h227.727
		c4.143,0,7.5,3.358,7.5,7.5C462.088,227.936,458.73,231.294,454.588,231.294z"/>
	<path style="fill:#FFFFFF;" d="M454.588,265.811h-106.54c-4.143,0-7.5-3.358-7.5-7.5s3.357-7.5,7.5-7.5h106.54
		c4.143,0,7.5,3.358,7.5,7.5C462.088,262.454,458.73,265.811,454.588,265.811z"/>
</g>
<g>
</g>
<g>
</g>
<g>
</g>
<g>
</g>
<g>
</g>
<g>
</g>
<g>
</g>
<g>
</g>
<g>
</g>
<g>
</g>
<g>
</g>
<g>
</g>
<g>
</g>
<g>
</g>
<g>
</g>
</svg>
