<?xml version="1.0" encoding="iso-8859-1"?>
<!-- Generator: Adobe Illustrator 19.0.0, SVG Export Plug-In . SVG Version: 6.00 Build 0)  -->
<svg version="1.1" id="Capa_1" xmlns="http://www.w3.org/2000/svg" xmlns:xlink="http://www.w3.org/1999/xlink" x="0px" y="0px"
	 viewBox="0 0 512 512" style="enable-background:new 0 0 512 512;" xml:space="preserve">
<circle style="fill:#02AF8E;" cx="256" cy="267" r="245"/>
<path style="fill:#EEF6FF;" d="M319.063,149.773v13.172c0,2.206-1.794,4-4,4H196.936c-2.205,0-4-1.794-4-4v-13.172H51.808v252.638
	C63.5,420.006,77.405,436,93.126,450.003h325.747c15.722-14.002,29.627-29.997,41.318-47.592V149.773H319.063z"/>
<path style="fill:#D9EAFC;" d="M51.808,149.773v252.638c7.689,11.571,16.352,22.433,25.842,32.508V149.773H51.808z"/>
<polygon style="fill:#B7092B;" points="361.24,0 149.927,0.001 197.929,48.003 313.238,48.002 "/>
<g>
	<path style="fill:#293D7C;" d="M192.936,140.159c0-2.206,1.795-4,4-4h23.677l-53.16-53.16H61.808c-5.5,0-10,4.5-10,10v57.774
		h141.128V140.159z"/>
	<polygon style="fill:#293D7C;" points="278.655,82.999 232.511,82.999 255.583,106.071 	"/>
	<path style="fill:#293D7C;" d="M450.192,82.999H343.713l-53.16,53.16h24.51c2.206,0,4,1.794,4,4v10.614h141.128V92.999
		C460.192,87.499,455.692,82.999,450.192,82.999z"/>
</g>
<path style="fill:#EA2A3D;" d="M256.083,105.157L150.927,0H93.041c-5.5,0-6.818,3.182-2.929,7.071l129.087,129.087h5.883
	L256.083,105.157z"/>
<path style="fill:#B7092B;" d="M234.061,127.179L113.954,7.071C110.065,3.182,111.383,0,116.883,0H93.041
	c-5.5,0-6.818,3.182-2.929,7.071l129.087,129.087h5.883L234.061,127.179z"/>
<path style="fill:#FE3745;" d="M418.125,0H360.24L224.082,136.159h67.885L421.055,7.071C424.943,3.182,423.625,0,418.125,0z"/>
<path style="fill:#FFD00D;" d="M256,179.894c9.076,0,17.915,1.038,26.402,3.002v-15.951h-52.804v15.95
	C238.086,180.932,246.924,179.894,256,179.894z"/>
<circle style="fill:#EF9614;" cx="256" cy="297" r="118.1"/>
<circle style="fill:#FFD00D;" cx="256" cy="297" r="83.937"/>
<path style="fill:#FFAF10;" d="M191.906,296.998c0-42.998,32.338-78.422,74.015-83.333c-3.256-0.384-6.562-0.603-9.921-0.603
	c-46.357,0-83.937,37.58-83.937,83.936c0,46.358,37.58,83.937,83.937,83.937c3.359,0,6.665-0.22,9.921-0.603
	C224.244,375.42,191.906,339.996,191.906,296.998z"/>
<path style="fill:#DB722C;" d="M252.791,249.385c1.766-3.576,4.652-3.576,6.418,0l10.971,22.229
	c1.765,3.576,6.438,6.972,10.384,7.544l24.531,3.565c3.946,0.573,4.838,3.319,1.982,6.103l-17.75,17.303
	c-2.855,2.784-4.641,8.276-3.966,12.207l4.19,24.433c0.675,3.93-1.662,5.628-5.192,3.772l-21.941-11.536
	c-3.529-1.855-9.306-1.855-12.835,0l-21.942,11.536c-3.53,1.856-5.866,0.158-5.192-3.772l4.191-24.433
	c0.675-3.931-1.111-9.423-3.966-12.207l-17.751-17.303c-2.855-2.784-1.963-5.53,1.983-6.103l24.531-3.565
	c3.946-0.573,8.619-3.968,10.384-7.544L252.791,249.385z"/>
<path style="fill:#E26693;" d="M78.333,123.282c-2.139,0-4.224-0.865-5.735-2.366c-1.502-1.512-2.366-3.597-2.366-5.735
	c0-2.129,0.864-4.213,2.366-5.725c1.512-1.513,3.597-2.377,5.735-2.377c2.128,0,4.224,0.864,5.725,2.377
	c1.513,1.512,2.377,3.596,2.377,5.725c0,2.138-0.864,4.223-2.377,5.735C82.557,122.418,80.461,123.282,78.333,123.282z"/>
<path style="fill:#FFAF10;" d="M104.901,123.282c-2.128,0-4.224-0.865-5.726-2.377c-1.512-1.501-2.376-3.586-2.376-5.724
	c0-2.129,0.864-4.213,2.376-5.725c1.513-1.513,3.598-2.377,5.726-2.377c2.139,0,4.223,0.864,5.736,2.377
	c1.501,1.512,2.365,3.596,2.365,5.725c0,2.128-0.864,4.223-2.365,5.724C109.123,122.418,107.04,123.282,104.901,123.282z"/>
<path style="fill:#37C47A;" d="M131.479,123.282c-2.139,0-4.224-0.865-5.725-2.366c-1.513-1.512-2.377-3.597-2.377-5.735
	c0-2.129,0.864-4.213,2.377-5.725c1.501-1.513,3.586-2.377,5.725-2.377c2.128,0,4.224,0.864,5.725,2.377
	c1.513,1.512,2.377,3.596,2.377,5.725c0,2.138-0.864,4.223-2.377,5.735C135.692,122.418,133.607,123.282,131.479,123.282z"/>
<path style="fill:#FFAF10;" d="M320.063,162.945c0,2.75-2.25,5-5,5H196.936c-2.75,0-5-2.25-5-5v-22.786c0-2.75,2.25-5,5-5h118.127
	c2.75,0,5,2.25,5,5V162.945z"/>
<path style="fill:#EF9614;" d="M211.779,162.945v-22.786c0-2.75,2.25-5,5-5h-19.842c-2.75,0-5,2.25-5,5v22.786c0,2.75,2.25,5,5,5
	h19.842C214.029,167.945,211.779,165.695,211.779,162.945z"/>
<g>
</g>
<g>
</g>
<g>
</g>
<g>
</g>
<g>
</g>
<g>
</g>
<g>
</g>
<g>
</g>
<g>
</g>
<g>
</g>
<g>
</g>
<g>
</g>
<g>
</g>
<g>
</g>
<g>
</g>
</svg>
