<?xml version="1.0" encoding="iso-8859-1"?>
<!-- Generator: Adobe Illustrator 19.0.0, SVG Export Plug-In . SVG Version: 6.00 Build 0)  -->
<svg version="1.1" id="Capa_1" xmlns="http://www.w3.org/2000/svg" xmlns:xlink="http://www.w3.org/1999/xlink" x="0px" y="0px"
	 viewBox="0 0 512 512" style="enable-background:new 0 0 512 512;" xml:space="preserve">
<circle style="fill:#F24976;" cx="256" cy="267" r="245"/>
<path style="fill:#D9EAFC;" d="M45.979,393.212C88.845,464.388,166.859,512,256,512s167.155-47.612,210.021-118.788V61.55H45.979
	V393.212z"/>
<path style="fill:#AEC1ED;" d="M45.979,61.55v331.662c5.956,9.89,12.593,19.323,19.842,28.239V61.55H45.979z"/>
<path style="fill:#293D7C;" d="M456.021,0H55.979c-5.5,0-10,4.5-10,10v52.55H466.02V10C466.021,4.5,461.521,0,456.021,0z"/>
<path style="fill:#FFCA51;" d="M106.35,38.377c-2.128,0-4.224-0.865-5.726-2.377c-1.512-1.501-2.376-3.586-2.376-5.724
	c0-2.129,0.864-4.213,2.376-5.725c1.513-1.513,3.598-2.376,5.726-2.376c2.139,0,4.223,0.864,5.736,2.376
	c1.501,1.512,2.365,3.596,2.365,5.725c0,2.128-0.864,4.223-2.365,5.724C110.572,37.512,108.488,38.377,106.35,38.377z"/>
<path style="fill:#E26693;" d="M78.851,38.377c-2.128,0-4.224-0.865-5.726-2.377c-1.512-1.501-2.376-3.586-2.376-5.724
	c0-2.129,0.864-4.213,2.376-5.725c1.513-1.513,3.598-2.376,5.726-2.376c2.139,0,4.223,0.864,5.736,2.376
	c1.501,1.512,2.365,3.596,2.365,5.725c0,2.128-0.864,4.223-2.365,5.724C83.074,37.512,80.99,38.377,78.851,38.377z"/>
<path style="fill:#37C47A;" d="M132.928,38.377c-2.139,0-4.224-0.865-5.725-2.366c-1.513-1.512-2.377-3.597-2.377-5.735
	c0-2.129,0.864-4.213,2.377-5.725c1.501-1.513,3.586-2.376,5.725-2.376c2.128,0,4.224,0.864,5.725,2.376
	c1.513,1.512,2.377,3.596,2.377,5.725c0,2.138-0.864,4.223-2.377,5.735C137.141,37.512,135.056,38.377,132.928,38.377z"/>
<path style="fill:#FFFFFF;" d="M91.894,79.878c-2.72,0-4.945,2.227-4.945,4.946v55.401c0,2.72,2.226,4.946,4.945,4.946h258.967
	V79.878H91.894z"/>
<path style="fill:#EEF6FF;" d="M106.791,140.226V84.825c0-2.72,2.226-4.946,4.945-4.946H91.894c-2.72,0-4.945,2.227-4.945,4.946
	v55.401c0,2.72,2.226,4.946,4.945,4.946h19.842C109.017,145.172,106.791,142.946,106.791,140.226z"/>
<g>
	<path style="fill:#FFFFFF;" d="M410.583,201.99H194.534c-4.142,0-7.5-3.358-7.5-7.5s3.358-7.5,7.5-7.5h216.049
		c4.143,0,7.5,3.358,7.5,7.5S414.726,201.99,410.583,201.99z"/>
	<path style="fill:#FFFFFF;" d="M410.583,227.489H194.534c-4.142,0-7.5-3.358-7.5-7.5s3.358-7.5,7.5-7.5h216.049
		c4.143,0,7.5,3.358,7.5,7.5S414.726,227.489,410.583,227.489z"/>
	<path style="fill:#FFFFFF;" d="M410.583,252.987H194.534c-4.142,0-7.5-3.358-7.5-7.5s3.358-7.5,7.5-7.5h216.049
		c4.143,0,7.5,3.358,7.5,7.5S414.726,252.987,410.583,252.987z"/>
	<path style="fill:#FFFFFF;" d="M170.949,256.754c0,2.75-2.25,5-5,5h-74c-2.75,0-5-2.25-5-5v-74c0-2.75,2.25-5,5-5h74
		c2.75,0,5,2.25,5,5V256.754z"/>
</g>
<g>
	<path style="fill:#91E0E8;" d="M410.583,308.485H194.534c-4.142,0-7.5-3.358-7.5-7.5s3.358-7.5,7.5-7.5h216.049
		c4.143,0,7.5,3.358,7.5,7.5C418.083,305.127,414.726,308.485,410.583,308.485z"/>
	<path style="fill:#91E0E8;" d="M410.583,333.983H194.534c-4.142,0-7.5-3.358-7.5-7.5s3.358-7.5,7.5-7.5h216.049
		c4.143,0,7.5,3.358,7.5,7.5C418.083,330.626,414.726,333.983,410.583,333.983z"/>
	<path style="fill:#91E0E8;" d="M339.976,359.482H194.534c-4.142,0-7.5-3.358-7.5-7.5s3.358-7.5,7.5-7.5h145.442
		c4.143,0,7.5,3.358,7.5,7.5S344.118,359.482,339.976,359.482z"/>
	<path style="fill:#91E0E8;" d="M170.949,363.249c0,2.75-2.25,5-5,5h-74c-2.75,0-5-2.25-5-5v-74c0-2.75,2.25-5,5-5h74
		c2.75,0,5,2.25,5,5V363.249z"/>
</g>
<path style="fill:#F87EAB;" d="M165.949,390.744h-74c-2.75,0-5,2.25-5,5v48.576c11.957,11.404,25.067,21.607,39.135,30.424h39.865
	c2.75,0,5-2.25,5-5v-74C170.949,392.994,168.699,390.744,165.949,390.744z"/>
<path style="fill:#EEF6FF;" d="M106.791,256.754v-74c0-2.75,2.25-5,5-5H91.949c-2.75,0-5,2.25-5,5v74c0,2.75,2.25,5,5,5h19.842
	C109.041,261.754,106.791,259.504,106.791,256.754z"/>
<path style="fill:#5DC1D8;" d="M106.791,363.249v-74c0-2.75,2.25-5,5-5H91.949c-2.75,0-5,2.25-5,5v74c0,2.75,2.25,5,5,5h19.842
	C109.041,368.249,106.791,365.999,106.791,363.249z"/>
<path style="fill:#E26693;" d="M106.791,395.744c0-2.75,2.25-5,5-5H91.949c-2.75,0-5,2.25-5,5v48.576
	c6.3,6.009,12.93,11.675,19.842,16.99V395.744z"/>
<g>
	<path style="fill:#F87EAB;" d="M410.583,414.979H194.534c-4.142,0-7.5-3.358-7.5-7.5s3.358-7.5,7.5-7.5h216.049
		c4.143,0,7.5,3.358,7.5,7.5C418.083,411.622,414.726,414.979,410.583,414.979z"/>
	<path style="fill:#F87EAB;" d="M410.583,440.478H194.534c-4.142,0-7.5-3.358-7.5-7.5s3.358-7.5,7.5-7.5h216.049
		c4.143,0,7.5,3.358,7.5,7.5S414.726,440.478,410.583,440.478z"/>
	<path style="fill:#F87EAB;" d="M273.591,465.977h-79.057c-4.142,0-7.5-3.358-7.5-7.5s3.358-7.5,7.5-7.5h79.057
		c4.143,0,7.5,3.358,7.5,7.5S277.733,465.977,273.591,465.977z"/>
</g>
<path style="fill:#2BB381;" d="M420.051,79.878h-71.19v65.294h71.19c2.75,0,5-2.25,5-5V84.878
	C425.051,82.128,422.801,79.878,420.051,79.878z"/>
<path style="fill:#0F9390;" d="M414.181,127.355l-8.829-8.828c1.462-3.033,2.258-6.369,2.258-9.835
	c0-6.063-2.361-11.764-6.647-16.05c-4.287-4.288-9.988-6.649-16.051-6.649s-11.763,2.361-16.05,6.647
	c-4.288,4.287-6.649,9.987-6.649,16.051c0,6.063,2.361,11.764,6.649,16.052c4.287,4.286,9.986,6.646,16.049,6.647
	c0.001,0,0.001,0,0.002,0c3.465,0,6.801-0.796,9.834-2.258l8.829,8.829c1.464,1.465,3.384,2.197,5.303,2.197
	s3.839-0.732,5.304-2.197C417.11,135.032,417.11,130.283,414.181,127.355z M384.911,116.39c-2.057,0-3.99-0.801-5.443-2.254
	c-1.455-1.455-2.256-3.388-2.256-5.445c0-2.056,0.801-3.989,2.255-5.443s3.388-2.255,5.444-2.255s3.989,0.801,5.444,2.256
	c1.453,1.453,2.254,3.386,2.254,5.443s-0.801,3.99-2.255,5.443c-1.454,1.454-3.387,2.255-5.442,2.255
	C384.911,116.39,384.911,116.39,384.911,116.39z"/>
<g>
</g>
<g>
</g>
<g>
</g>
<g>
</g>
<g>
</g>
<g>
</g>
<g>
</g>
<g>
</g>
<g>
</g>
<g>
</g>
<g>
</g>
<g>
</g>
<g>
</g>
<g>
</g>
<g>
</g>
</svg>
