<?xml version="1.0" encoding="iso-8859-1"?>
<!-- Generator: Adobe Illustrator 19.0.0, SVG Export Plug-In . SVG Version: 6.00 Build 0)  -->
<svg version="1.1" id="Capa_1" xmlns="http://www.w3.org/2000/svg" xmlns:xlink="http://www.w3.org/1999/xlink" x="0px" y="0px"
	 viewBox="0 0 512 512" style="enable-background:new 0 0 512 512;" xml:space="preserve">
<circle style="fill:#52BBEF;" cx="256" cy="267" r="245"/>
<path style="fill:#EEF6FF;" d="M374.711,244l-3.077,5.33c-1.144,1.981-2.612,3.072-4.134,3.072s-2.99-1.091-4.134-3.072l-3.077-5.33
	H151.711l-3.077,5.33c-1.144,1.981-2.612,3.072-4.134,3.072s-2.99-1.091-4.134-3.072l-3.077-5.33H39.685v138.103
	c18.574,34.833,45.311,64.648,77.663,86.897h277.304c32.352-22.249,59.089-52.064,77.663-86.897V244H374.711z"/>
<path style="fill:#D9EAFC;" d="M39.685,244v138.103c5.834,10.941,12.476,21.386,19.842,31.258V244H39.685z"/>
<g>
	<path style="fill:#FFAF10;" d="M101.634,182.242c-1.144-1.982-1.355-3.798-0.594-5.116s2.44-2.044,4.728-2.044h20.18
		c0.552,0,1-0.447,1-1v-44.215H39.685V245h98.181L101.634,182.242z"/>
	<path style="fill:#FFAF10;" d="M162.053,174.082c0,0.553,0.448,1,1,1h20.18c2.288,0,3.967,0.726,4.728,2.044
		c0.761,1.318,0.55,3.135-0.594,5.116L151.134,245h209.732l-36.232-62.758c-1.144-1.982-1.355-3.798-0.594-5.116
		c0.761-1.318,2.44-2.044,4.728-2.044h20.18c0.552,0,1-0.447,1-1v-44.215h-52.597l-37.217,64.463
		c-1.144,1.981-2.612,3.072-4.134,3.072s-2.99-1.091-4.134-3.072l-37.217-64.463h-52.597L162.053,174.082L162.053,174.082z"/>
	<path style="fill:#FFAF10;" d="M385.053,129.867v44.215c0,0.553,0.448,1,1,1h20.18c2.288,0,3.967,0.726,4.728,2.044
		c0.761,1.318,0.55,3.135-0.594,5.116L374.134,245h98.181V129.867H385.053z"/>
</g>
<rect x="39.685" y="129.87" style="fill:#FF9518;" width="19.842" height="115.13"/>
<g>
	<path style="fill:#293D7C;" d="M39.685,86.454v44.413h87.262v-6.201c0-2.206,1.794-4,4-4h27.105c2.206,0,4,1.794,4,4v6.201h53.174
		l-2.093-3.625c-1.144-1.982-1.355-3.798-0.594-5.116s2.44-2.044,4.728-2.044h20.18c0.552,0,1-0.447,1-1V76.004H50.135
		C44.388,76.004,39.685,80.707,39.685,86.454z"/>
	<path style="fill:#293D7C;" d="M461.865,76.004H273.553v43.078c0,0.553,0.448,1,1,1h20.18c2.288,0,3.967,0.726,4.728,2.044
		s0.55,3.135-0.594,5.116l-2.093,3.625h53.174v-6.201c0-2.206,1.794-4,4-4h27.105c2.206,0,4,1.794,4,4v6.201h87.262V86.454
		C472.315,80.707,467.612,76.004,461.865,76.004z"/>
</g>
<path style="fill:#1A2B63;" d="M69.977,76.004H50.135c-5.747,0-10.45,4.703-10.45,10.45v44.413h19.842V86.454
	C59.527,80.707,64.23,76.004,69.977,76.004z"/>
<path style="fill:#EA2A3D;" d="M71.574,109.583c-2.069,0-4.086-0.837-5.549-2.29c-1.452-1.463-2.289-3.479-2.289-5.547
	c0-2.06,0.836-4.076,2.289-5.539c1.463-1.464,3.48-2.299,5.549-2.299c2.058,0,4.086,0.835,5.538,2.299
	c1.463,1.463,2.3,3.479,2.3,5.539c0,2.067-0.836,4.084-2.3,5.547C75.66,108.746,73.632,109.583,71.574,109.583z"/>
<path style="fill:#FFAF10;" d="M97.275,109.583c-2.059,0-4.086-0.837-5.539-2.301c-1.463-1.452-2.298-3.469-2.298-5.536
	c0-2.06,0.835-4.076,2.298-5.539c1.463-1.464,3.48-2.299,5.539-2.299c2.069,0,4.085,0.835,5.549,2.299
	c1.452,1.463,2.289,3.479,2.289,5.539c0,2.057-0.836,4.084-2.289,5.536C101.36,108.746,99.344,109.583,97.275,109.583z"/>
<path style="fill:#2BB381;" d="M122.987,109.583c-2.069,0-4.086-0.837-5.538-2.29c-1.463-1.463-2.3-3.479-2.3-5.547
	c0-2.06,0.837-4.076,2.3-5.539c1.452-1.464,3.469-2.299,5.538-2.299c2.059,0,4.086,0.835,5.539,2.299
	c1.463,1.463,2.299,3.479,2.299,5.539c0,2.067-0.835,4.084-2.299,5.547C127.062,108.746,125.046,109.583,122.987,109.583z"/>
<path style="fill:#999CAD;" d="M447.235,109.246h-25.08c-4.142,0-7.5-3.357-7.5-7.5s3.358-7.5,7.5-7.5h25.08
	c4.142,0,7.5,3.357,7.5,7.5S451.377,109.246,447.235,109.246z"/>
<path style="fill:#FE3745;" d="M294.732,119.082h-20.18V5c0-2.75-2.25-5-5-5h-27.105c-2.75,0-5,2.25-5,5v114.082h-20.18
	c-5.5,0-7.75,3.897-5,8.66L251,194.83c2.75,4.763,7.25,4.763,10,0l38.732-67.088C302.482,122.979,300.232,119.082,294.732,119.082z"
	/>
<path style="fill:#B7092B;" d="M213.528,129.925h31.762c1.657,0,3-1.343,3-3V0h-5.842c-2.75,0-5,2.25-5,5v114.082h-20.18
	c-5.5,0-7.75,3.897-5,8.66L213.528,129.925z"/>
<path style="fill:#FE3745;" d="M406.232,174.082h-20.18v-49.416c0-2.75-2.25-5-5-5h-27.105c-2.75,0-5,2.25-5,5v49.416h-20.18
	c-5.5,0-7.75,3.898-5,8.66L362.5,249.83c2.75,4.763,7.25,4.763,10,0l38.732-67.088C413.982,177.98,411.732,174.082,406.232,174.082z
	"/>
<path style="fill:#B7092B;" d="M325.119,185.082h31.829c1.657,0,3-1.343,3-3v-62.416h-6c-2.75,0-5,2.25-5,5v49.416h-20.18
	c-5.5,0-7.75,3.898-5,8.66L325.119,185.082z"/>
<path style="fill:#FE3745;" d="M183.232,174.082h-20.18v-49.416c0-2.75-2.25-5-5-5h-27.105c-2.75,0-5,2.25-5,5v49.416h-20.18
	c-5.5,0-7.75,3.898-5,8.66L139.5,249.83c2.75,4.763,7.25,4.763,10,0l38.732-67.088C190.982,177.98,188.732,174.082,183.232,174.082z
	"/>
<path style="fill:#B7092B;" d="M102.119,185.082h31.829c1.657,0,3-1.343,3-3v-62.416h-6c-2.75,0-5,2.25-5,5v49.416h-20.18
	c-5.5,0-7.75,3.898-5,8.66L102.119,185.082z"/>
<path style="fill:#FFFFFF;" d="M143.489,370.015c-1.65,0-3,1.351-3,3v30.003c0,1.65,1.35,3,3,3h185.124v-36.003H143.489z"/>
<path style="fill:#D9EAFC;" d="M160.331,403.018v-30.003c0-1.649,1.35-3,3-3h-19.842c-1.65,0-3,1.351-3,3v30.003c0,1.65,1.35,3,3,3
	h19.842C161.682,406.018,160.331,404.668,160.331,403.018z"/>
<g>
	<path style="fill:#FFDD8D;" d="M359.935,294.978H228.064c-4.142,0-7.5-3.357-7.5-7.5s3.358-7.5,7.5-7.5h131.871
		c4.142,0,7.5,3.357,7.5,7.5S364.078,294.978,359.935,294.978z"/>
	<path style="fill:#FFDD8D;" d="M359.935,319.466H228.064c-4.142,0-7.5-3.357-7.5-7.5s3.358-7.5,7.5-7.5h131.871
		c4.142,0,7.5,3.357,7.5,7.5C367.435,316.108,364.078,319.466,359.935,319.466z"/>
	<path style="fill:#FFDD8D;" d="M359.935,343.953H228.064c-4.142,0-7.5-3.357-7.5-7.5s3.358-7.5,7.5-7.5h131.871
		c4.142,0,7.5,3.357,7.5,7.5S364.078,343.953,359.935,343.953z"/>
</g>
<path style="fill:#FFAF10;" d="M368.511,370.015h-40.897v36.003h40.897c1.65,0,3-1.35,3-3v-30.003
	C371.511,371.365,370.161,370.015,368.511,370.015z"/>
<circle style="fill:#FFDD8D;" cx="171" cy="309" r="37"/>
<path style="fill:#FFD00D;" d="M153.842,309c0-16.996,11.464-31.307,27.079-35.644C177.763,272.478,174.438,272,171,272
	c-20.435,0-37,16.565-37,37s16.565,37,37,37c3.438,0,6.763-0.478,9.921-1.356C165.307,340.307,153.842,325.996,153.842,309z"/>
<g>
</g>
<g>
</g>
<g>
</g>
<g>
</g>
<g>
</g>
<g>
</g>
<g>
</g>
<g>
</g>
<g>
</g>
<g>
</g>
<g>
</g>
<g>
</g>
<g>
</g>
<g>
</g>
<g>
</g>
</svg>
