<?xml version="1.0" encoding="iso-8859-1"?>
<!-- Generator: Adobe Illustrator 19.0.0, SVG Export Plug-In . SVG Version: 6.00 Build 0)  -->
<svg version="1.1" id="Capa_1" xmlns="http://www.w3.org/2000/svg" xmlns:xlink="http://www.w3.org/1999/xlink" x="0px" y="0px"
	 viewBox="0 0 512 512" style="enable-background:new 0 0 512 512;" xml:space="preserve">
<circle style="fill:#37C47A;" cx="256" cy="256" r="245"/>
<path style="fill:#91E0E8;" d="M0,323.156c0,2.75,2.25,5,5,5h73.481v-15.472c0-4.963,4.037-9,9-9h62.824V119.188
	c0-4.303,3.501-7.804,7.804-7.804h235.323V93.68H0V323.156z"/>
<path style="fill:#5DC1D8;" d="M19.843,323.156V93.68H0v229.477c0,2.75,2.25,5,5,5h19.843
	C22.093,328.156,19.843,325.906,19.843,323.156z"/>
<g>
	<path style="fill:#293D7C;" d="M383.884,37.383H9.55c-5.253,0-9.55,4.297-9.55,9.55V94.68h393.433V46.933
		C393.433,41.68,389.137,37.383,383.884,37.383z"/>
	<path style="fill:#293D7C;" d="M29.393,37.383H9.55c-5.253,0-9.55,4.297-9.55,9.55V94.68h19.843V46.933
		C19.843,41.68,24.14,37.383,29.393,37.383z"/>
</g>
<path style="fill:#E26693;" d="M36.827,75.871c-2.042,0-4.032-0.825-5.476-2.259c-1.435-1.444-2.261-3.435-2.261-5.477
	c0-2.033,0.826-4.024,2.261-5.466c1.444-1.446,3.435-2.27,5.476-2.27c2.032,0,4.033,0.823,5.468,2.27
	c1.443,1.442,2.269,3.433,2.269,5.466c0,2.042-0.825,4.033-2.269,5.477C40.86,75.046,38.859,75.871,36.827,75.871z"/>
<path style="fill:#FFAF10;" d="M62.197,75.871c-2.032,0-4.033-0.825-5.467-2.27c-1.443-1.434-2.269-3.425-2.269-5.467
	c0-2.033,0.825-4.024,2.269-5.466c1.444-1.446,3.435-2.27,5.467-2.27c2.043,0,4.033,0.823,5.478,2.27
	c1.433,1.442,2.259,3.433,2.259,5.466c0,2.032-0.826,4.033-2.259,5.467C66.23,75.046,64.24,75.871,62.197,75.871z"/>
<path style="fill:#37C47A;" d="M87.578,75.871c-2.042,0-4.033-0.825-5.466-2.259c-1.444-1.444-2.271-3.435-2.271-5.477
	c0-2.033,0.826-4.024,2.271-5.466c1.433-1.446,3.424-2.27,5.466-2.27c2.032,0,4.033,0.823,5.467,2.27
	c1.445,1.442,2.27,3.433,2.27,5.466c0,2.042-0.824,4.033-2.27,5.477C91.601,75.046,89.61,75.871,87.578,75.871z"/>
<g>
	<path style="fill:#5DC1D8;" d="M116.724,172.964h-72.9c-4.143,0-7.5-3.357-7.5-7.5s3.357-7.5,7.5-7.5h72.9
		c4.143,0,7.5,3.357,7.5,7.5C124.224,169.606,120.866,172.964,116.724,172.964z"/>
	<path style="fill:#5DC1D8;" d="M150.306,157.964h-5.47c-4.143,0-7.5,3.357-7.5,7.5s3.357,7.5,7.5,7.5h5.47V157.964z"/>
	<path style="fill:#5DC1D8;" d="M150.306,188.703H43.823c-4.143,0-7.5,3.357-7.5,7.5s3.357,7.5,7.5,7.5h106.482L150.306,188.703
		L150.306,188.703z"/>
	<path style="fill:#5DC1D8;" d="M92.424,234.443H43.823c-4.143,0-7.5-3.357-7.5-7.5s3.357-7.5,7.5-7.5h48.601
		c4.143,0,7.5,3.357,7.5,7.5S96.566,234.443,92.424,234.443z"/>
	<path style="fill:#5DC1D8;" d="M150.306,219.443h-32.683c-4.143,0-7.5,3.357-7.5,7.5s3.357,7.5,7.5,7.5h32.683V219.443z"/>
	<path style="fill:#5DC1D8;" d="M150.306,250.183H43.823c-4.143,0-7.5,3.357-7.5,7.5c0,4.143,3.357,7.5,7.5,7.5h106.482
		L150.306,250.183L150.306,250.183z"/>
	<path style="fill:#5DC1D8;" d="M116.724,295.922h-72.9c-4.143,0-7.5-3.357-7.5-7.5s3.357-7.5,7.5-7.5h72.9
		c4.143,0,7.5,3.357,7.5,7.5S120.866,295.922,116.724,295.922z"/>
	<path style="fill:#5DC1D8;" d="M150.306,280.922h-5.47c-4.143,0-7.5,3.357-7.5,7.5s3.357,7.5,7.5,7.5h5.47V280.922z"/>
	<path style="fill:#5DC1D8;" d="M150.306,119.188c0-0.774,0.117-1.521,0.328-2.229h-25.872c-4.143,0-7.5,3.357-7.5,7.5
		c0,4.143,3.357,7.5,7.5,7.5h25.544V119.188z"/>
</g>
<path style="fill:#1A2B63;" d="M367.511,75.635h-26.739c-4.143,0-7.5-3.358-7.5-7.5c0-4.143,3.357-7.5,7.5-7.5h26.739
	c4.143,0,7.5,3.357,7.5,7.5C375.011,72.277,371.653,75.635,367.511,75.635z"/>
<path style="fill:#FFD00D;" d="M149.306,303.685h275.213c4.963,0,9,4.037,9,9v65.754H507c2.75,0,5-2.25,5-5V162.203H149.306V303.685
	z"/>
<rect x="149.31" y="162.2" style="fill:#FFAF10;" width="19.843" height="141.48"/>
<g>
	<path style="fill:#293D7C;" d="M503.196,110.384H158.109c-4.842,0-8.804,3.961-8.804,8.804v44.016H512v-44.016
		C512,114.345,508.039,110.384,503.196,110.384z"/>
	<path style="fill:#293D7C;" d="M177.952,110.384h-19.843c-4.842,0-8.804,3.961-8.804,8.804v44.016h19.843v-44.016
		C169.148,114.345,173.11,110.384,177.952,110.384z"/>
</g>
<path style="fill:#E26693;" d="M183.201,145.865c-1.882,0-3.717-0.762-5.049-2.083c-1.322-1.332-2.084-3.168-2.084-5.05
	c0-1.873,0.762-3.709,2.084-5.039c1.332-1.333,3.167-2.092,5.049-2.092c1.874,0,3.718,0.759,5.04,2.092
	c1.331,1.33,2.092,3.166,2.092,5.039c0,1.882-0.761,3.718-2.092,5.05C186.919,145.104,185.075,145.865,183.201,145.865z"/>
<path style="fill:#FFAF10;" d="M206.59,145.865c-1.874,0-3.719-0.762-5.041-2.094c-1.329-1.321-2.091-3.157-2.091-5.039
	c0-1.873,0.762-3.709,2.091-5.039c1.332-1.333,3.167-2.092,5.041-2.092c1.883,0,3.718,0.759,5.05,2.092
	c1.32,1.33,2.082,3.166,2.082,5.039c0,1.874-0.762,3.718-2.082,5.039C210.308,145.104,208.473,145.865,206.59,145.865z"/>
<path style="fill:#37C47A;" d="M229.987,145.865c-1.883,0-3.719-0.762-5.039-2.083c-1.332-1.332-2.094-3.168-2.094-5.05
	c0-1.873,0.762-3.709,2.094-5.039c1.32-1.333,3.156-2.092,5.039-2.092c1.873,0,3.718,0.759,5.039,2.092
	c1.332,1.33,2.093,3.166,2.093,5.039c0,1.882-0.761,3.718-2.093,5.05C233.695,145.104,231.86,145.865,229.987,145.865z"/>
<g>
	<path style="fill:#DB722C;" d="M256.91,235.958h-67.205c-4.143,0-7.5-3.357-7.5-7.5s3.357-7.5,7.5-7.5h67.205
		c4.143,0,7.5,3.357,7.5,7.5S261.053,235.958,256.91,235.958z"/>
	<path style="fill:#DB722C;" d="M471.601,235.958H357.3c-4.143,0-7.5-3.357-7.5-7.5s3.357-7.5,7.5-7.5h114.301
		c4.143,0,7.5,3.357,7.5,7.5C479.101,232.601,475.743,235.958,471.601,235.958z"/>
	<path style="fill:#DB722C;" d="M331.58,235.958h-48.754c-4.143,0-7.5-3.357-7.5-7.5s3.357-7.5,7.5-7.5h48.754
		c4.143,0,7.5,3.357,7.5,7.5S335.723,235.958,331.58,235.958z"/>
	<path style="fill:#DB722C;" d="M365.598,264.295H189.705c-4.143,0-7.5-3.357-7.5-7.5s3.357-7.5,7.5-7.5h175.893
		c4.143,0,7.5,3.357,7.5,7.5C373.098,260.938,369.74,264.295,365.598,264.295z"/>
	<path style="fill:#DB722C;" d="M471.601,264.295h-81.942c-4.143,0-7.5-3.357-7.5-7.5s3.357-7.5,7.5-7.5h81.942
		c4.143,0,7.5,3.357,7.5,7.5C479.101,260.938,475.743,264.295,471.601,264.295z"/>
	<path style="fill:#DB722C;" d="M234.508,292.633h-44.803c-4.143,0-7.5-3.357-7.5-7.5s3.357-7.5,7.5-7.5h44.803
		c4.143,0,7.5,3.357,7.5,7.5C242.008,289.275,238.65,292.633,234.508,292.633z"/>
	<path style="fill:#DB722C;" d="M471.601,292.633h-57.882c-4.143,0-7.5-3.357-7.5-7.5s3.357-7.5,7.5-7.5h57.882
		c4.143,0,7.5,3.357,7.5,7.5C479.101,289.275,475.743,292.633,471.601,292.633z"/>
	<path style="fill:#DB722C;" d="M389.658,292.633h-61.397c-4.143,0-7.5-3.357-7.5-7.5s3.357-7.5,7.5-7.5h61.397
		c4.143,0,7.5,3.357,7.5,7.5C397.158,289.275,393.801,292.633,389.658,292.633z"/>
	<path style="fill:#DB722C;" d="M305.031,292.633h-47.292c-4.143,0-7.5-3.357-7.5-7.5s3.357-7.5,7.5-7.5h47.292
		c4.142,0,7.5,3.357,7.5,7.5C312.531,289.275,309.174,292.633,305.031,292.633z"/>
	<path style="fill:#DB722C;" d="M471.601,305.972h-41.108c1.852,1.649,3.026,4.044,3.026,6.713v8.287h38.082
		c4.143,0,7.5-3.357,7.5-7.5C479.101,309.329,475.743,305.972,471.601,305.972z"/>
	<path style="fill:#DB722C;" d="M471.601,334.31h-38.082v15h38.082c4.143,0,7.5-3.358,7.5-7.5
		C479.101,337.667,475.743,334.31,471.601,334.31z"/>
	<path style="fill:#DB722C;" d="M396.986,198.156H264.32c-4.143,0-7.5-3.357-7.5-7.5s3.357-7.5,7.5-7.5h132.666
		c4.143,0,7.5,3.357,7.5,7.5C404.486,194.799,401.129,198.156,396.986,198.156z"/>
</g>
<path style="fill:#1A2B63;" d="M488.103,146.233h-24.65c-4.142,0-7.5-3.357-7.5-7.5s3.358-7.5,7.5-7.5h24.65
	c4.143,0,7.5,3.357,7.5,7.5S492.245,146.233,488.103,146.233z"/>
<path style="fill:#293D7C;" d="M145.309,474.617h221.383c25.502-12.938,48.43-30.208,67.827-50.84V312.685c0-5.5-4.5-10-10-10
	H87.481c-5.5,0-10,4.5-10,10v111.093C96.879,444.409,119.807,461.68,145.309,474.617z"/>
<path style="fill:#1A2B63;" d="M97.324,312.685c0-5.5,4.5-10,10-10H87.481c-5.5,0-10,4.5-10,10v111.093
	c6.256,6.654,12.884,12.953,19.843,18.875C97.324,442.653,97.324,312.685,97.324,312.685z"/>
<g>
	<path style="fill:#C3DDF4;" d="M117.799,325.012H97.333c-1.65,0-3,1.35-3,3v20.465c0,1.65,1.35,3,3,3h20.466c1.65,0,3-1.35,3-3
		v-20.465C120.799,326.361,119.449,325.012,117.799,325.012z"/>
	<path style="fill:#C3DDF4;" d="M150.969,325.012h-20.466c-1.65,0-3,1.35-3,3v20.465c0,1.65,1.35,3,3,3h20.466c1.65,0,3-1.35,3-3
		v-20.465C153.969,326.361,152.619,325.012,150.969,325.012z"/>
	<path style="fill:#C3DDF4;" d="M163.673,351.477h20.466c1.65,0,3-1.35,3-3v-20.465c0-1.65-1.35-3-3-3h-20.466c-1.65,0-3,1.35-3,3
		v20.465C160.673,350.127,162.023,351.477,163.673,351.477z"/>
	<path style="fill:#C3DDF4;" d="M196.844,351.477h20.466c1.65,0,3-1.35,3-3v-20.465c0-1.65-1.35-3-3-3h-20.466c-1.65,0-3,1.35-3,3
		v20.465C193.844,350.127,195.193,351.477,196.844,351.477z"/>
	<path style="fill:#C3DDF4;" d="M230.014,351.477h20.466c1.65,0,3-1.35,3-3v-20.465c0-1.65-1.35-3-3-3h-20.466c-1.65,0-3,1.35-3,3
		v20.465C227.014,350.127,228.363,351.477,230.014,351.477z"/>
	<path style="fill:#C3DDF4;" d="M263.184,351.477h20.466c1.649,0,3-1.35,3-3v-20.465c0-1.65-1.351-3-3-3h-20.466c-1.65,0-3,1.35-3,3
		v20.465C260.184,350.127,261.533,351.477,263.184,351.477z"/>
	<path style="fill:#C3DDF4;" d="M296.353,351.477h20.466c1.65,0,3-1.35,3-3v-20.465c0-1.65-1.35-3-3-3h-20.466c-1.65,0-3,1.35-3,3
		v20.465C293.353,350.127,294.703,351.477,296.353,351.477z"/>
	<path style="fill:#C3DDF4;" d="M349.99,325.012h-20.467c-1.65,0-3,1.35-3,3v20.465c0,1.65,1.35,3,3,3h20.467c1.65,0,3-1.35,3-3
		v-20.465C352.99,326.361,351.641,325.012,349.99,325.012z"/>
	<path style="fill:#C3DDF4;" d="M383.16,325.012h-20.466c-1.649,0-3,1.35-3,3v20.465c0,1.65,1.351,3,3,3h20.466c1.65,0,3-1.35,3-3
		v-20.465C386.16,326.361,384.81,325.012,383.16,325.012z"/>
	<path style="fill:#C3DDF4;" d="M416.33,325.012h-20.466c-1.649,0-3,1.35-3,3v20.465c0,1.65,1.351,3,3,3h20.466c1.65,0,3-1.35,3-3
		v-20.465C419.33,326.361,417.98,325.012,416.33,325.012z"/>
	<path style="fill:#C3DDF4;" d="M117.799,359.594H97.333c-1.65,0-3,1.35-3,3v20.466c0,1.649,1.35,3,3,3h20.466c1.65,0,3-1.351,3-3
		v-20.466C120.799,360.943,119.449,359.594,117.799,359.594z"/>
	<path style="fill:#C3DDF4;" d="M150.969,359.594h-20.466c-1.65,0-3,1.35-3,3v20.466c0,1.649,1.35,3,3,3h20.466c1.65,0,3-1.351,3-3
		v-20.466C153.969,360.943,152.619,359.594,150.969,359.594z"/>
	<path style="fill:#C3DDF4;" d="M163.673,386.06h20.466c1.65,0,3-1.351,3-3v-20.466c0-1.65-1.35-3-3-3h-20.466c-1.65,0-3,1.35-3,3
		v20.466C160.673,384.709,162.023,386.06,163.673,386.06z"/>
	<path style="fill:#C3DDF4;" d="M196.844,386.06h20.466c1.65,0,3-1.351,3-3v-20.466c0-1.65-1.35-3-3-3h-20.466c-1.65,0-3,1.35-3,3
		v20.466C193.844,384.709,195.193,386.06,196.844,386.06z"/>
	<path style="fill:#C3DDF4;" d="M230.014,386.06h20.466c1.65,0,3-1.351,3-3v-20.466c0-1.65-1.35-3-3-3h-20.466c-1.65,0-3,1.35-3,3
		v20.466C227.014,384.709,228.363,386.06,230.014,386.06z"/>
	<path style="fill:#C3DDF4;" d="M263.184,386.06h20.466c1.649,0,3-1.351,3-3v-20.466c0-1.65-1.351-3-3-3h-20.466c-1.65,0-3,1.35-3,3
		v20.466C260.184,384.709,261.533,386.06,263.184,386.06z"/>
	<path style="fill:#C3DDF4;" d="M296.353,386.06h20.466c1.65,0,3-1.351,3-3v-20.466c0-1.65-1.35-3-3-3h-20.466c-1.65,0-3,1.35-3,3
		v20.466C293.353,384.709,294.703,386.06,296.353,386.06z"/>
	<path style="fill:#C3DDF4;" d="M349.99,359.594h-20.467c-1.65,0-3,1.35-3,3v20.466c0,1.649,1.35,3,3,3h20.467c1.65,0,3-1.351,3-3
		v-20.466C352.99,360.943,351.641,359.594,349.99,359.594z"/>
	<path style="fill:#C3DDF4;" d="M383.16,359.594h-20.466c-1.649,0-3,1.35-3,3v20.466c0,1.649,1.351,3,3,3h20.466c1.65,0,3-1.351,3-3
		v-20.466C386.16,360.943,384.81,359.594,383.16,359.594z"/>
	<path style="fill:#C3DDF4;" d="M416.33,359.594h-20.466c-1.649,0-3,1.35-3,3v20.466c0,1.649,1.351,3,3,3h20.466c1.65,0,3-1.351,3-3
		v-20.466C419.33,360.943,417.98,359.594,416.33,359.594z"/>
	<path style="fill:#C3DDF4;" d="M117.799,394.176H97.333c-1.65,0-3,1.35-3,3v20.466c0,1.649,1.35,3,3,3h20.466c1.65,0,3-1.351,3-3
		v-20.466C120.799,395.525,119.449,394.176,117.799,394.176z"/>
	<path style="fill:#C3DDF4;" d="M150.969,394.176h-20.466c-1.65,0-3,1.35-3,3v20.466c0,1.649,1.35,3,3,3h20.466c1.65,0,3-1.351,3-3
		v-20.466C153.969,395.525,152.619,394.176,150.969,394.176z"/>
	<path style="fill:#C3DDF4;" d="M163.673,420.642h20.466c1.65,0,3-1.351,3-3v-20.466c0-1.65-1.35-3-3-3h-20.466c-1.65,0-3,1.35-3,3
		v20.466C160.673,419.291,162.023,420.642,163.673,420.642z"/>
	<path style="fill:#C3DDF4;" d="M196.844,420.642h20.466c1.65,0,3-1.351,3-3v-20.466c0-1.65-1.35-3-3-3h-20.466c-1.65,0-3,1.35-3,3
		v20.466C193.844,419.291,195.193,420.642,196.844,420.642z"/>
	<path style="fill:#C3DDF4;" d="M230.014,420.642h20.466c1.65,0,3-1.351,3-3v-20.466c0-1.65-1.35-3-3-3h-20.466c-1.65,0-3,1.35-3,3
		v20.466C227.014,419.291,228.363,420.642,230.014,420.642z"/>
	<path style="fill:#C3DDF4;" d="M263.184,420.642h20.466c1.649,0,3-1.351,3-3v-20.466c0-1.65-1.351-3-3-3h-20.466
		c-1.65,0-3,1.35-3,3v20.466C260.184,419.291,261.533,420.642,263.184,420.642z"/>
	<path style="fill:#C3DDF4;" d="M296.353,420.642h20.466c1.65,0,3-1.351,3-3v-20.466c0-1.65-1.35-3-3-3h-20.466c-1.65,0-3,1.35-3,3
		v20.466C293.353,419.291,294.703,420.642,296.353,420.642z"/>
	<path style="fill:#C3DDF4;" d="M349.99,394.176h-20.467c-1.65,0-3,1.35-3,3v20.466c0,1.649,1.35,3,3,3h20.467c1.65,0,3-1.351,3-3
		v-20.466C352.99,395.525,351.641,394.176,349.99,394.176z"/>
	<path style="fill:#C3DDF4;" d="M383.16,394.176h-20.466c-1.649,0-3,1.35-3,3v20.466c0,1.649,1.351,3,3,3h20.466c1.65,0,3-1.351,3-3
		v-20.466C386.16,395.525,384.81,394.176,383.16,394.176z"/>
	<path style="fill:#C3DDF4;" d="M416.33,394.176h-20.466c-1.649,0-3,1.35-3,3v20.466c0,1.649,1.351,3,3,3h20.466c1.65,0,3-1.351,3-3
		v-20.466C419.33,395.525,417.98,394.176,416.33,394.176z"/>
	<path style="fill:#C3DDF4;" d="M117.799,428.758H97.333c-1.65,0-3,1.35-3,3v8.315c6.092,5.354,12.447,10.415,19.053,15.151h4.413
		c1.65,0,3-1.35,3-3v-20.467C120.799,430.107,119.449,428.758,117.799,428.758z"/>
	<path style="fill:#C3DDF4;" d="M150.969,428.758h-20.466c-1.65,0-3,1.35-3,3v20.467c0,1.65,1.35,3,3,3h20.466c1.65,0,3-1.35,3-3
		v-20.467C153.969,430.107,152.619,428.758,150.969,428.758z"/>
	<path style="fill:#C3DDF4;" d="M349.99,428.758H163.673c-1.65,0-3,1.35-3,3v20.467c0,1.65,1.35,3,3,3H349.99c1.65,0,3-1.35,3-3
		v-20.467C352.99,430.107,351.641,428.758,349.99,428.758z"/>
	<path style="fill:#C3DDF4;" d="M383.16,428.758h-20.466c-1.649,0-3,1.35-3,3v20.467c0,1.65,1.351,3,3,3h20.466c1.65,0,3-1.35,3-3
		v-20.467C386.16,430.107,384.81,428.758,383.16,428.758z"/>
	<path style="fill:#C3DDF4;" d="M416.33,428.758h-20.466c-1.649,0-3,1.35-3,3v20.467c0,1.65,1.351,3,3,3h2.75
		c7.209-5.17,14.121-10.725,20.716-16.627v-6.84C419.33,430.107,417.98,428.758,416.33,428.758z"/>
</g>
<g>
</g>
<g>
</g>
<g>
</g>
<g>
</g>
<g>
</g>
<g>
</g>
<g>
</g>
<g>
</g>
<g>
</g>
<g>
</g>
<g>
</g>
<g>
</g>
<g>
</g>
<g>
</g>
<g>
</g>
</svg>
